ISO-10303-21;
HEADER;
/* Generated by software containing ST-Developer
 * from STEP Tools, Inc. (www.steptools.com) 
 */

FILE_DESCRIPTION(
/* description */ (''),
/* implementation_level */ '2;1');

FILE_NAME(
/* name */ 'cardan link.step',
/* time_stamp */ '2026-09-16T17:26:46+02:00',
/* author */ (''),
/* organization */ (''),
/* preprocessor_version */ 'ST-DEVELOPER v20.2',
/* originating_system */ 'Autodesk Translation Framework v15.15.0.0',
/* authorisation */ '');

FILE_SCHEMA (('AUTOMOTIVE_DESIGN { 1 0 10303 214 3 1 1 }'));
ENDSEC;

DATA;
#10=MECHANICAL_DESIGN_GEOMETRIC_PRESENTATION_REPRESENTATION('',(#13),#1210);
#11=SHAPE_REPRESENTATION_RELATIONSHIP('SRR','None',#1217,#12);
#12=ADVANCED_BREP_SHAPE_REPRESENTATION('',(#14),#1209);
#13=STYLED_ITEM('',(#1226),#14);
#14=MANIFOLD_SOLID_BREP('Cuerpo1',#590);
#15=FACE_BOUND('',#208,.T.);
#16=FACE_BOUND('',#210,.T.);
#17=FACE_BOUND('',#221,.T.);
#18=FACE_BOUND('',#223,.T.);
#19=PLANE('',#628);
#20=PLANE('',#629);
#21=PLANE('',#630);
#22=PLANE('',#643);
#23=PLANE('',#647);
#24=PLANE('',#651);
#25=PLANE('',#652);
#26=PLANE('',#655);
#27=PLANE('',#656);
#28=PLANE('',#657);
#29=PLANE('',#660);
#30=PLANE('',#664);
#31=PLANE('',#665);
#32=PLANE('',#666);
#33=PLANE('',#667);
#34=PLANE('',#668);
#35=PLANE('',#669);
#36=PLANE('',#670);
#37=LINE('',#915,#84);
#38=LINE('',#918,#85);
#39=LINE('',#924,#86);
#40=LINE('',#927,#87);
#41=LINE('',#1036,#88);
#42=LINE('',#1039,#89);
#43=LINE('',#1045,#90);
#44=LINE('',#1048,#91);
#45=LINE('',#1100,#92);
#46=LINE('',#1102,#93);
#47=LINE('',#1103,#94);
#48=LINE('',#1106,#95);
#49=LINE('',#1108,#96);
#50=LINE('',#1109,#97);
#51=LINE('',#1112,#98);
#52=LINE('',#1114,#99);
#53=LINE('',#1115,#100);
#54=LINE('',#1118,#101);
#55=LINE('',#1126,#102);
#56=LINE('',#1131,#103);
#57=LINE('',#1136,#104);
#58=LINE('',#1137,#105);
#59=LINE('',#1142,#106);
#60=LINE('',#1149,#107);
#61=LINE('',#1154,#108);
#62=LINE('',#1156,#109);
#63=LINE('',#1157,#110);
#64=LINE('',#1162,#111);
#65=LINE('',#1163,#112);
#66=LINE('',#1166,#113);
#67=LINE('',#1167,#114);
#68=LINE('',#1170,#115);
#69=LINE('',#1172,#116);
#70=LINE('',#1173,#117);
#71=LINE('',#1178,#118);
#72=LINE('',#1179,#119);
#73=LINE('',#1184,#120);
#74=LINE('',#1188,#121);
#75=LINE('',#1190,#122);
#76=LINE('',#1191,#123);
#77=LINE('',#1194,#124);
#78=LINE('',#1195,#125);
#79=LINE('',#1197,#126);
#80=LINE('',#1198,#127);
#81=LINE('',#1201,#128);
#82=LINE('',#1202,#129);
#83=LINE('',#1204,#130);
#84=VECTOR('',#683,10.);
#85=VECTOR('',#686,10.);
#86=VECTOR('',#691,10.);
#87=VECTOR('',#694,10.);
#88=VECTOR('',#711,10.);
#89=VECTOR('',#714,10.);
#90=VECTOR('',#719,10.);
#91=VECTOR('',#722,10.);
#92=VECTOR('',#731,10.);
#93=VECTOR('',#732,10.);
#94=VECTOR('',#733,10.);
#95=VECTOR('',#736,10.);
#96=VECTOR('',#737,10.);
#97=VECTOR('',#738,10.);
#98=VECTOR('',#741,10.);
#99=VECTOR('',#742,10.);
#100=VECTOR('',#743,10.);
#101=VECTOR('',#746,10.);
#102=VECTOR('',#759,10.);
#103=VECTOR('',#766,10.);
#104=VECTOR('',#773,10.);
#105=VECTOR('',#774,10.);
#106=VECTOR('',#779,2.);
#107=VECTOR('',#788,2.);
#108=VECTOR('',#795,10.);
#109=VECTOR('',#796,10.);
#110=VECTOR('',#797,10.);
#111=VECTOR('',#804,10.);
#112=VECTOR('',#805,10.);
#113=VECTOR('',#808,10.);
#114=VECTOR('',#809,10.);
#115=VECTOR('',#812,10.);
#116=VECTOR('',#813,10.);
#117=VECTOR('',#814,10.);
#118=VECTOR('',#821,10.);
#119=VECTOR('',#822,10.);
#120=VECTOR('',#827,2.05);
#121=VECTOR('',#832,10.);
#122=VECTOR('',#833,10.);
#123=VECTOR('',#834,10.);
#124=VECTOR('',#837,10.);
#125=VECTOR('',#838,10.);
#126=VECTOR('',#841,10.);
#127=VECTOR('',#842,10.);
#128=VECTOR('',#845,10.);
#129=VECTOR('',#846,10.);
#130=VECTOR('',#849,10.);
#131=CYLINDRICAL_SURFACE('',#608,2.);
#132=CYLINDRICAL_SURFACE('',#610,2.);
#133=CYLINDRICAL_SURFACE('',#620,2.);
#134=CYLINDRICAL_SURFACE('',#622,2.);
#135=CYLINDRICAL_SURFACE('',#631,5.);
#136=CYLINDRICAL_SURFACE('',#633,5.);
#137=CYLINDRICAL_SURFACE('',#635,5.);
#138=CYLINDRICAL_SURFACE('',#637,5.);
#139=CYLINDRICAL_SURFACE('',#639,5.);
#140=CYLINDRICAL_SURFACE('',#641,5.);
#141=CYLINDRICAL_SURFACE('',#644,2.);
#142=CYLINDRICAL_SURFACE('',#648,2.);
#143=CYLINDRICAL_SURFACE('',#653,5.);
#144=CYLINDRICAL_SURFACE('',#658,5.);
#145=CYLINDRICAL_SURFACE('',#661,2.05);
#146=FACE_OUTER_BOUND('',#183,.T.);
#147=FACE_OUTER_BOUND('',#184,.T.);
#148=FACE_OUTER_BOUND('',#185,.T.);
#149=FACE_OUTER_BOUND('',#186,.T.);
#150=FACE_OUTER_BOUND('',#187,.T.);
#151=FACE_OUTER_BOUND('',#188,.T.);
#152=FACE_OUTER_BOUND('',#189,.T.);
#153=FACE_OUTER_BOUND('',#190,.T.);
#154=FACE_OUTER_BOUND('',#191,.T.);
#155=FACE_OUTER_BOUND('',#192,.T.);
#156=FACE_OUTER_BOUND('',#193,.T.);
#157=FACE_OUTER_BOUND('',#194,.T.);
#158=FACE_OUTER_BOUND('',#195,.T.);
#159=FACE_OUTER_BOUND('',#196,.T.);
#160=FACE_OUTER_BOUND('',#197,.T.);
#161=FACE_OUTER_BOUND('',#198,.T.);
#162=FACE_OUTER_BOUND('',#199,.T.);
#163=FACE_OUTER_BOUND('',#200,.T.);
#164=FACE_OUTER_BOUND('',#201,.T.);
#165=FACE_OUTER_BOUND('',#202,.T.);
#166=FACE_OUTER_BOUND('',#203,.T.);
#167=FACE_OUTER_BOUND('',#204,.T.);
#168=FACE_OUTER_BOUND('',#205,.T.);
#169=FACE_OUTER_BOUND('',#206,.T.);
#170=FACE_OUTER_BOUND('',#207,.T.);
#171=FACE_OUTER_BOUND('',#209,.T.);
#172=FACE_OUTER_BOUND('',#211,.T.);
#173=FACE_OUTER_BOUND('',#212,.T.);
#174=FACE_OUTER_BOUND('',#213,.T.);
#175=FACE_OUTER_BOUND('',#214,.T.);
#176=FACE_OUTER_BOUND('',#215,.T.);
#177=FACE_OUTER_BOUND('',#216,.T.);
#178=FACE_OUTER_BOUND('',#217,.T.);
#179=FACE_OUTER_BOUND('',#218,.T.);
#180=FACE_OUTER_BOUND('',#219,.T.);
#181=FACE_OUTER_BOUND('',#220,.T.);
#182=FACE_OUTER_BOUND('',#222,.T.);
#183=EDGE_LOOP('',(#387,#388,#389,#390));
#184=EDGE_LOOP('',(#391,#392,#393,#394));
#185=EDGE_LOOP('',(#395,#396,#397,#398));
#186=EDGE_LOOP('',(#399,#400,#401,#402));
#187=EDGE_LOOP('',(#403,#404,#405,#406));
#188=EDGE_LOOP('',(#407,#408,#409,#410));
#189=EDGE_LOOP('',(#411,#412,#413,#414));
#190=EDGE_LOOP('',(#415,#416,#417,#418));
#191=EDGE_LOOP('',(#419,#420,#421,#422));
#192=EDGE_LOOP('',(#423,#424,#425,#426));
#193=EDGE_LOOP('',(#427,#428,#429,#430));
#194=EDGE_LOOP('',(#431,#432,#433));
#195=EDGE_LOOP('',(#434,#435,#436));
#196=EDGE_LOOP('',(#437,#438,#439));
#197=EDGE_LOOP('',(#440,#441,#442,#443,#444));
#198=EDGE_LOOP('',(#445,#446,#447));
#199=EDGE_LOOP('',(#448,#449,#450));
#200=EDGE_LOOP('',(#451,#452,#453,#454));
#201=EDGE_LOOP('',(#455,#456,#457,#458));
#202=EDGE_LOOP('',(#459));
#203=EDGE_LOOP('',(#460,#461,#462,#463));
#204=EDGE_LOOP('',(#464));
#205=EDGE_LOOP('',(#465,#466,#467,#468));
#206=EDGE_LOOP('',(#469,#470,#471,#472,#473));
#207=EDGE_LOOP('',(#474,#475,#476,#477,#478));
#208=EDGE_LOOP('',(#479));
#209=EDGE_LOOP('',(#480,#481,#482,#483,#484));
#210=EDGE_LOOP('',(#485));
#211=EDGE_LOOP('',(#486,#487,#488,#489));
#212=EDGE_LOOP('',(#490,#491,#492));
#213=EDGE_LOOP('',(#493,#494,#495,#496));
#214=EDGE_LOOP('',(#497,#498,#499,#500));
#215=EDGE_LOOP('',(#501,#502,#503,#504,#505,#506,#507));
#216=EDGE_LOOP('',(#508,#509,#510,#511,#512,#513,#514));
#217=EDGE_LOOP('',(#515,#516,#517,#518,#519,#520,#521));
#218=EDGE_LOOP('',(#522,#523,#524,#525,#526,#527,#528));
#219=EDGE_LOOP('',(#529,#530,#531,#532));
#220=EDGE_LOOP('',(#533,#534,#535,#536,#537,#538,#539));
#221=EDGE_LOOP('',(#540));
#222=EDGE_LOOP('',(#541,#542,#543,#544,#545,#546,#547));
#223=EDGE_LOOP('',(#548));
#224=ELLIPSE('',#605,8.60232526704263,5.);
#225=ELLIPSE('',#606,8.60232526704263,5.);
#226=ELLIPSE('',#607,8.60232526704263,5.);
#227=ELLIPSE('',#609,3.46410161513775,2.);
#228=ELLIPSE('',#611,3.46410161513776,2.);
#229=ELLIPSE('',#613,8.60232526704263,5.);
#230=ELLIPSE('',#614,8.60232526704262,5.);
#231=ELLIPSE('',#615,8.60232526704262,5.);
#232=ELLIPSE('',#617,8.60232526704262,5.);
#233=ELLIPSE('',#618,8.60232526704262,5.);
#234=ELLIPSE('',#619,8.60232526704263,5.);
#235=ELLIPSE('',#621,3.46410161513776,2.);
#236=ELLIPSE('',#623,3.46410161513775,2.);
#237=ELLIPSE('',#625,8.60232526704263,5.);
#238=ELLIPSE('',#626,8.60232526704262,5.);
#239=ELLIPSE('',#627,8.60232526704262,5.);
#240=CIRCLE('',#604,2.);
#241=CIRCLE('',#612,2.);
#242=CIRCLE('',#616,2.);
#243=CIRCLE('',#624,2.);
#244=CIRCLE('',#632,5.);
#245=CIRCLE('',#634,5.);
#246=CIRCLE('',#636,5.);
#247=CIRCLE('',#638,5.);
#248=CIRCLE('',#640,5.);
#249=CIRCLE('',#642,5.);
#250=CIRCLE('',#645,2.);
#251=CIRCLE('',#646,2.);
#252=CIRCLE('',#649,2.);
#253=CIRCLE('',#650,2.);
#254=CIRCLE('',#654,5.);
#255=CIRCLE('',#659,5.);
#256=CIRCLE('',#662,2.05);
#257=CIRCLE('',#663,2.05);
#258=VERTEX_POINT('',#905);
#259=VERTEX_POINT('',#906);
#260=VERTEX_POINT('',#908);
#261=VERTEX_POINT('',#910);
#262=VERTEX_POINT('',#914);
#263=VERTEX_POINT('',#916);
#264=VERTEX_POINT('',#920);
#265=VERTEX_POINT('',#921);
#266=VERTEX_POINT('',#923);
#267=VERTEX_POINT('',#925);
#268=VERTEX_POINT('',#974);
#269=VERTEX_POINT('',#1027);
#270=VERTEX_POINT('',#1028);
#271=VERTEX_POINT('',#1030);
#272=VERTEX_POINT('',#1035);
#273=VERTEX_POINT('',#1037);
#274=VERTEX_POINT('',#1041);
#275=VERTEX_POINT('',#1042);
#276=VERTEX_POINT('',#1044);
#277=VERTEX_POINT('',#1046);
#278=VERTEX_POINT('',#1095);
#279=VERTEX_POINT('',#1099);
#280=VERTEX_POINT('',#1101);
#281=VERTEX_POINT('',#1105);
#282=VERTEX_POINT('',#1107);
#283=VERTEX_POINT('',#1111);
#284=VERTEX_POINT('',#1113);
#285=VERTEX_POINT('',#1117);
#286=VERTEX_POINT('',#1125);
#287=VERTEX_POINT('',#1129);
#288=VERTEX_POINT('',#1135);
#289=VERTEX_POINT('',#1139);
#290=VERTEX_POINT('',#1141);
#291=VERTEX_POINT('',#1146);
#292=VERTEX_POINT('',#1148);
#293=VERTEX_POINT('',#1153);
#294=VERTEX_POINT('',#1155);
#295=VERTEX_POINT('',#1161);
#296=VERTEX_POINT('',#1165);
#297=VERTEX_POINT('',#1169);
#298=VERTEX_POINT('',#1171);
#299=VERTEX_POINT('',#1177);
#300=VERTEX_POINT('',#1181);
#301=VERTEX_POINT('',#1183);
#302=VERTEX_POINT('',#1187);
#303=VERTEX_POINT('',#1189);
#304=VERTEX_POINT('',#1193);
#305=VERTEX_POINT('',#1200);
#306=EDGE_CURVE('',#258,#259,#240,.T.);
#307=EDGE_CURVE('',#259,#260,#224,.T.);
#308=EDGE_CURVE('',#260,#261,#225,.T.);
#309=EDGE_CURVE('',#261,#258,#226,.T.);
#310=EDGE_CURVE('',#258,#262,#37,.T.);
#311=EDGE_CURVE('',#262,#263,#227,.T.);
#312=EDGE_CURVE('',#263,#259,#38,.T.);
#313=EDGE_CURVE('',#264,#265,#228,.T.);
#314=EDGE_CURVE('',#265,#266,#39,.T.);
#315=EDGE_CURVE('',#266,#267,#241,.T.);
#316=EDGE_CURVE('',#267,#264,#40,.T.);
#317=EDGE_CURVE('',#266,#261,#229,.T.);
#318=EDGE_CURVE('',#261,#268,#230,.T.);
#319=EDGE_CURVE('',#268,#267,#231,.T.);
#320=EDGE_CURVE('',#269,#270,#242,.T.);
#321=EDGE_CURVE('',#270,#271,#232,.T.);
#322=EDGE_CURVE('',#271,#261,#233,.T.);
#323=EDGE_CURVE('',#261,#269,#234,.T.);
#324=EDGE_CURVE('',#269,#272,#41,.T.);
#325=EDGE_CURVE('',#272,#273,#235,.T.);
#326=EDGE_CURVE('',#273,#270,#42,.T.);
#327=EDGE_CURVE('',#274,#275,#236,.T.);
#328=EDGE_CURVE('',#275,#276,#43,.T.);
#329=EDGE_CURVE('',#276,#277,#243,.T.);
#330=EDGE_CURVE('',#277,#274,#44,.T.);
#331=EDGE_CURVE('',#276,#261,#237,.T.);
#332=EDGE_CURVE('',#261,#278,#238,.T.);
#333=EDGE_CURVE('',#278,#277,#239,.T.);
#334=EDGE_CURVE('',#279,#267,#45,.T.);
#335=EDGE_CURVE('',#280,#279,#46,.T.);
#336=EDGE_CURVE('',#280,#264,#47,.T.);
#337=EDGE_CURVE('',#281,#258,#48,.T.);
#338=EDGE_CURVE('',#282,#281,#49,.T.);
#339=EDGE_CURVE('',#282,#262,#50,.T.);
#340=EDGE_CURVE('',#269,#283,#51,.T.);
#341=EDGE_CURVE('',#284,#283,#52,.T.);
#342=EDGE_CURVE('',#272,#284,#53,.T.);
#343=EDGE_CURVE('',#285,#270,#54,.T.);
#344=EDGE_CURVE('',#285,#271,#244,.T.);
#345=EDGE_CURVE('',#271,#268,#245,.T.);
#346=EDGE_CURVE('',#268,#279,#246,.T.);
#347=EDGE_CURVE('',#276,#286,#55,.T.);
#348=EDGE_CURVE('',#283,#286,#247,.T.);
#349=EDGE_CURVE('',#287,#278,#248,.T.);
#350=EDGE_CURVE('',#277,#287,#56,.T.);
#351=EDGE_CURVE('',#278,#260,#249,.T.);
#352=EDGE_CURVE('',#275,#288,#57,.T.);
#353=EDGE_CURVE('',#286,#288,#58,.T.);
#354=EDGE_CURVE('',#289,#289,#250,.T.);
#355=EDGE_CURVE('',#289,#290,#59,.T.);
#356=EDGE_CURVE('',#290,#290,#251,.T.);
#357=EDGE_CURVE('',#291,#291,#252,.T.);
#358=EDGE_CURVE('',#291,#292,#60,.T.);
#359=EDGE_CURVE('',#292,#292,#253,.T.);
#360=EDGE_CURVE('',#293,#265,#61,.T.);
#361=EDGE_CURVE('',#294,#293,#62,.T.);
#362=EDGE_CURVE('',#294,#266,#63,.T.);
#363=EDGE_CURVE('',#281,#294,#254,.T.);
#364=EDGE_CURVE('',#295,#282,#64,.T.);
#365=EDGE_CURVE('',#293,#295,#65,.T.);
#366=EDGE_CURVE('',#296,#284,#66,.T.);
#367=EDGE_CURVE('',#288,#296,#67,.T.);
#368=EDGE_CURVE('',#263,#297,#68,.T.);
#369=EDGE_CURVE('',#298,#297,#69,.T.);
#370=EDGE_CURVE('',#259,#298,#70,.T.);
#371=EDGE_CURVE('',#260,#298,#255,.T.);
#372=EDGE_CURVE('',#299,#273,#71,.T.);
#373=EDGE_CURVE('',#299,#285,#72,.T.);
#374=EDGE_CURVE('',#300,#300,#256,.T.);
#375=EDGE_CURVE('',#300,#301,#73,.T.);
#376=EDGE_CURVE('',#301,#301,#257,.T.);
#377=EDGE_CURVE('',#295,#302,#74,.T.);
#378=EDGE_CURVE('',#303,#280,#75,.T.);
#379=EDGE_CURVE('',#303,#302,#76,.T.);
#380=EDGE_CURVE('',#302,#304,#77,.T.);
#381=EDGE_CURVE('',#297,#304,#78,.T.);
#382=EDGE_CURVE('',#302,#296,#79,.T.);
#383=EDGE_CURVE('',#303,#299,#80,.T.);
#384=EDGE_CURVE('',#274,#305,#81,.T.);
#385=EDGE_CURVE('',#304,#305,#82,.T.);
#386=EDGE_CURVE('',#305,#287,#83,.T.);
#387=ORIENTED_EDGE('',*,*,#306,.T.);
#388=ORIENTED_EDGE('',*,*,#307,.T.);
#389=ORIENTED_EDGE('',*,*,#308,.T.);
#390=ORIENTED_EDGE('',*,*,#309,.T.);
#391=ORIENTED_EDGE('',*,*,#306,.F.);
#392=ORIENTED_EDGE('',*,*,#310,.T.);
#393=ORIENTED_EDGE('',*,*,#311,.T.);
#394=ORIENTED_EDGE('',*,*,#312,.T.);
#395=ORIENTED_EDGE('',*,*,#313,.T.);
#396=ORIENTED_EDGE('',*,*,#314,.T.);
#397=ORIENTED_EDGE('',*,*,#315,.T.);
#398=ORIENTED_EDGE('',*,*,#316,.T.);
#399=ORIENTED_EDGE('',*,*,#315,.F.);
#400=ORIENTED_EDGE('',*,*,#317,.T.);
#401=ORIENTED_EDGE('',*,*,#318,.T.);
#402=ORIENTED_EDGE('',*,*,#319,.T.);
#403=ORIENTED_EDGE('',*,*,#320,.T.);
#404=ORIENTED_EDGE('',*,*,#321,.T.);
#405=ORIENTED_EDGE('',*,*,#322,.T.);
#406=ORIENTED_EDGE('',*,*,#323,.T.);
#407=ORIENTED_EDGE('',*,*,#320,.F.);
#408=ORIENTED_EDGE('',*,*,#324,.T.);
#409=ORIENTED_EDGE('',*,*,#325,.T.);
#410=ORIENTED_EDGE('',*,*,#326,.T.);
#411=ORIENTED_EDGE('',*,*,#327,.T.);
#412=ORIENTED_EDGE('',*,*,#328,.T.);
#413=ORIENTED_EDGE('',*,*,#329,.T.);
#414=ORIENTED_EDGE('',*,*,#330,.T.);
#415=ORIENTED_EDGE('',*,*,#329,.F.);
#416=ORIENTED_EDGE('',*,*,#331,.T.);
#417=ORIENTED_EDGE('',*,*,#332,.T.);
#418=ORIENTED_EDGE('',*,*,#333,.T.);
#419=ORIENTED_EDGE('',*,*,#316,.F.);
#420=ORIENTED_EDGE('',*,*,#334,.F.);
#421=ORIENTED_EDGE('',*,*,#335,.F.);
#422=ORIENTED_EDGE('',*,*,#336,.T.);
#423=ORIENTED_EDGE('',*,*,#310,.F.);
#424=ORIENTED_EDGE('',*,*,#337,.F.);
#425=ORIENTED_EDGE('',*,*,#338,.F.);
#426=ORIENTED_EDGE('',*,*,#339,.T.);
#427=ORIENTED_EDGE('',*,*,#324,.F.);
#428=ORIENTED_EDGE('',*,*,#340,.T.);
#429=ORIENTED_EDGE('',*,*,#341,.F.);
#430=ORIENTED_EDGE('',*,*,#342,.F.);
#431=ORIENTED_EDGE('',*,*,#321,.F.);
#432=ORIENTED_EDGE('',*,*,#343,.F.);
#433=ORIENTED_EDGE('',*,*,#344,.T.);
#434=ORIENTED_EDGE('',*,*,#318,.F.);
#435=ORIENTED_EDGE('',*,*,#322,.F.);
#436=ORIENTED_EDGE('',*,*,#345,.T.);
#437=ORIENTED_EDGE('',*,*,#319,.F.);
#438=ORIENTED_EDGE('',*,*,#346,.T.);
#439=ORIENTED_EDGE('',*,*,#334,.T.);
#440=ORIENTED_EDGE('',*,*,#323,.F.);
#441=ORIENTED_EDGE('',*,*,#331,.F.);
#442=ORIENTED_EDGE('',*,*,#347,.T.);
#443=ORIENTED_EDGE('',*,*,#348,.F.);
#444=ORIENTED_EDGE('',*,*,#340,.F.);
#445=ORIENTED_EDGE('',*,*,#333,.F.);
#446=ORIENTED_EDGE('',*,*,#349,.F.);
#447=ORIENTED_EDGE('',*,*,#350,.F.);
#448=ORIENTED_EDGE('',*,*,#308,.F.);
#449=ORIENTED_EDGE('',*,*,#351,.F.);
#450=ORIENTED_EDGE('',*,*,#332,.F.);
#451=ORIENTED_EDGE('',*,*,#328,.F.);
#452=ORIENTED_EDGE('',*,*,#352,.T.);
#453=ORIENTED_EDGE('',*,*,#353,.F.);
#454=ORIENTED_EDGE('',*,*,#347,.F.);
#455=ORIENTED_EDGE('',*,*,#354,.F.);
#456=ORIENTED_EDGE('',*,*,#355,.T.);
#457=ORIENTED_EDGE('',*,*,#356,.F.);
#458=ORIENTED_EDGE('',*,*,#355,.F.);
#459=ORIENTED_EDGE('',*,*,#356,.T.);
#460=ORIENTED_EDGE('',*,*,#357,.F.);
#461=ORIENTED_EDGE('',*,*,#358,.T.);
#462=ORIENTED_EDGE('',*,*,#359,.T.);
#463=ORIENTED_EDGE('',*,*,#358,.F.);
#464=ORIENTED_EDGE('',*,*,#359,.F.);
#465=ORIENTED_EDGE('',*,*,#314,.F.);
#466=ORIENTED_EDGE('',*,*,#360,.F.);
#467=ORIENTED_EDGE('',*,*,#361,.F.);
#468=ORIENTED_EDGE('',*,*,#362,.T.);
#469=ORIENTED_EDGE('',*,*,#317,.F.);
#470=ORIENTED_EDGE('',*,*,#362,.F.);
#471=ORIENTED_EDGE('',*,*,#363,.F.);
#472=ORIENTED_EDGE('',*,*,#337,.T.);
#473=ORIENTED_EDGE('',*,*,#309,.F.);
#474=ORIENTED_EDGE('',*,*,#364,.T.);
#475=ORIENTED_EDGE('',*,*,#338,.T.);
#476=ORIENTED_EDGE('',*,*,#363,.T.);
#477=ORIENTED_EDGE('',*,*,#361,.T.);
#478=ORIENTED_EDGE('',*,*,#365,.T.);
#479=ORIENTED_EDGE('',*,*,#354,.T.);
#480=ORIENTED_EDGE('',*,*,#366,.T.);
#481=ORIENTED_EDGE('',*,*,#341,.T.);
#482=ORIENTED_EDGE('',*,*,#348,.T.);
#483=ORIENTED_EDGE('',*,*,#353,.T.);
#484=ORIENTED_EDGE('',*,*,#367,.T.);
#485=ORIENTED_EDGE('',*,*,#357,.T.);
#486=ORIENTED_EDGE('',*,*,#312,.F.);
#487=ORIENTED_EDGE('',*,*,#368,.T.);
#488=ORIENTED_EDGE('',*,*,#369,.F.);
#489=ORIENTED_EDGE('',*,*,#370,.F.);
#490=ORIENTED_EDGE('',*,*,#307,.F.);
#491=ORIENTED_EDGE('',*,*,#370,.T.);
#492=ORIENTED_EDGE('',*,*,#371,.F.);
#493=ORIENTED_EDGE('',*,*,#326,.F.);
#494=ORIENTED_EDGE('',*,*,#372,.F.);
#495=ORIENTED_EDGE('',*,*,#373,.T.);
#496=ORIENTED_EDGE('',*,*,#343,.T.);
#497=ORIENTED_EDGE('',*,*,#374,.F.);
#498=ORIENTED_EDGE('',*,*,#375,.T.);
#499=ORIENTED_EDGE('',*,*,#376,.T.);
#500=ORIENTED_EDGE('',*,*,#375,.F.);
#501=ORIENTED_EDGE('',*,*,#377,.F.);
#502=ORIENTED_EDGE('',*,*,#365,.F.);
#503=ORIENTED_EDGE('',*,*,#360,.T.);
#504=ORIENTED_EDGE('',*,*,#313,.F.);
#505=ORIENTED_EDGE('',*,*,#336,.F.);
#506=ORIENTED_EDGE('',*,*,#378,.F.);
#507=ORIENTED_EDGE('',*,*,#379,.T.);
#508=ORIENTED_EDGE('',*,*,#380,.T.);
#509=ORIENTED_EDGE('',*,*,#381,.F.);
#510=ORIENTED_EDGE('',*,*,#368,.F.);
#511=ORIENTED_EDGE('',*,*,#311,.F.);
#512=ORIENTED_EDGE('',*,*,#339,.F.);
#513=ORIENTED_EDGE('',*,*,#364,.F.);
#514=ORIENTED_EDGE('',*,*,#377,.T.);
#515=ORIENTED_EDGE('',*,*,#382,.F.);
#516=ORIENTED_EDGE('',*,*,#379,.F.);
#517=ORIENTED_EDGE('',*,*,#383,.T.);
#518=ORIENTED_EDGE('',*,*,#372,.T.);
#519=ORIENTED_EDGE('',*,*,#325,.F.);
#520=ORIENTED_EDGE('',*,*,#342,.T.);
#521=ORIENTED_EDGE('',*,*,#366,.F.);
#522=ORIENTED_EDGE('',*,*,#384,.T.);
#523=ORIENTED_EDGE('',*,*,#385,.F.);
#524=ORIENTED_EDGE('',*,*,#380,.F.);
#525=ORIENTED_EDGE('',*,*,#382,.T.);
#526=ORIENTED_EDGE('',*,*,#367,.F.);
#527=ORIENTED_EDGE('',*,*,#352,.F.);
#528=ORIENTED_EDGE('',*,*,#327,.F.);
#529=ORIENTED_EDGE('',*,*,#330,.F.);
#530=ORIENTED_EDGE('',*,*,#350,.T.);
#531=ORIENTED_EDGE('',*,*,#386,.F.);
#532=ORIENTED_EDGE('',*,*,#384,.F.);
#533=ORIENTED_EDGE('',*,*,#385,.T.);
#534=ORIENTED_EDGE('',*,*,#386,.T.);
#535=ORIENTED_EDGE('',*,*,#349,.T.);
#536=ORIENTED_EDGE('',*,*,#351,.T.);
#537=ORIENTED_EDGE('',*,*,#371,.T.);
#538=ORIENTED_EDGE('',*,*,#369,.T.);
#539=ORIENTED_EDGE('',*,*,#381,.T.);
#540=ORIENTED_EDGE('',*,*,#374,.T.);
#541=ORIENTED_EDGE('',*,*,#378,.T.);
#542=ORIENTED_EDGE('',*,*,#335,.T.);
#543=ORIENTED_EDGE('',*,*,#346,.F.);
#544=ORIENTED_EDGE('',*,*,#345,.F.);
#545=ORIENTED_EDGE('',*,*,#344,.F.);
#546=ORIENTED_EDGE('',*,*,#373,.F.);
#547=ORIENTED_EDGE('',*,*,#383,.F.);
#548=ORIENTED_EDGE('',*,*,#376,.F.);
#549=B_SPLINE_SURFACE_WITH_KNOTS('',3,3,((#855,#856,#857,#858,#859,#860,
#861,#862,#863,#864),(#865,#866,#867,#868,#869,#870,#871,#872,#873,#874),
(#875,#876,#877,#878,#879,#880,#881,#882,#883,#884),(#885,#886,#887,#888,
#889,#890,#891,#892,#893,#894),(#895,#896,#897,#898,#899,#900,#901,#902,
#903,#904)),.UNSPECIFIED.,.F.,.F.,.F.,(4,1,4),(4,1,1,1,1,1,1,4),(0.,0.571428571428571,
1.),(-1.5707963267949,-1.23419711391028,-0.897597901025655,-0.560998688141034,
-0.224399475256414,0.112199737628207,0.448798950512828,0.785398163397448),
 .UNSPECIFIED.);
#550=B_SPLINE_SURFACE_WITH_KNOTS('',3,3,((#928,#929,#930,#931,#932,#933,
#934,#935,#936),(#937,#938,#939,#940,#941,#942,#943,#944,#945),(#946,#947,
#948,#949,#950,#951,#952,#953,#954),(#955,#956,#957,#958,#959,#960,#961,
#962,#963),(#964,#965,#966,#967,#968,#969,#970,#971,#972)),
 .UNSPECIFIED.,.F.,.F.,.F.,(4,1,4),(4,1,1,1,1,1,4),(0.,0.571428571428571,
1.),(-0.785398163397449,-0.448798950512828,-0.112199737628207,0.224399475256414,
0.560998688141034,1.23419711391028,1.5707963267949),.UNSPECIFIED.);
#551=B_SPLINE_SURFACE_WITH_KNOTS('',3,3,((#977,#978,#979,#980,#981,#982,
#983,#984,#985,#986),(#987,#988,#989,#990,#991,#992,#993,#994,#995,#996),
(#997,#998,#999,#1000,#1001,#1002,#1003,#1004,#1005,#1006),(#1007,#1008,
#1009,#1010,#1011,#1012,#1013,#1014,#1015,#1016),(#1017,#1018,#1019,#1020,
#1021,#1022,#1023,#1024,#1025,#1026)),.UNSPECIFIED.,.F.,.F.,.F.,(4,1,4),
(4,1,1,1,1,1,1,4),(0.,0.571428571428571,1.),(-1.5707963267949,-1.23419711391028,
-0.897597901025655,-0.560998688141034,-0.224399475256414,0.112199737628207,
0.448798950512828,0.785398163397448),.UNSPECIFIED.);
#552=B_SPLINE_SURFACE_WITH_KNOTS('',3,3,((#1049,#1050,#1051,#1052,#1053,
#1054,#1055,#1056,#1057),(#1058,#1059,#1060,#1061,#1062,#1063,#1064,#1065,
#1066),(#1067,#1068,#1069,#1070,#1071,#1072,#1073,#1074,#1075),(#1076,#1077,
#1078,#1079,#1080,#1081,#1082,#1083,#1084),(#1085,#1086,#1087,#1088,#1089,
#1090,#1091,#1092,#1093)),.UNSPECIFIED.,.F.,.F.,.F.,(4,1,4),(4,1,1,1,1,
1,4),(0.,0.571428571428571,1.),(-0.785398163397448,-0.448798950512828,-0.112199737628207,
0.224399475256414,0.560998688141034,1.23419711391028,1.5707963267949),
 .UNSPECIFIED.);
#553=ADVANCED_FACE('',(#146),#549,.T.);
#554=ADVANCED_FACE('',(#147),#131,.F.);
#555=ADVANCED_FACE('',(#148),#132,.F.);
#556=ADVANCED_FACE('',(#149),#550,.T.);
#557=ADVANCED_FACE('',(#150),#551,.T.);
#558=ADVANCED_FACE('',(#151),#133,.F.);
#559=ADVANCED_FACE('',(#152),#134,.F.);
#560=ADVANCED_FACE('',(#153),#552,.T.);
#561=ADVANCED_FACE('',(#154),#19,.T.);
#562=ADVANCED_FACE('',(#155),#20,.T.);
#563=ADVANCED_FACE('',(#156),#21,.T.);
#564=ADVANCED_FACE('',(#157),#135,.T.);
#565=ADVANCED_FACE('',(#158),#136,.T.);
#566=ADVANCED_FACE('',(#159),#137,.T.);
#567=ADVANCED_FACE('',(#160),#138,.T.);
#568=ADVANCED_FACE('',(#161),#139,.T.);
#569=ADVANCED_FACE('',(#162),#140,.T.);
#570=ADVANCED_FACE('',(#163),#22,.T.);
#571=ADVANCED_FACE('',(#164),#141,.F.);
#572=ADVANCED_FACE('',(#165),#23,.F.);
#573=ADVANCED_FACE('',(#166),#142,.F.);
#574=ADVANCED_FACE('',(#167),#24,.T.);
#575=ADVANCED_FACE('',(#168),#25,.T.);
#576=ADVANCED_FACE('',(#169),#143,.T.);
#577=ADVANCED_FACE('',(#170,#15),#26,.F.);
#578=ADVANCED_FACE('',(#171,#16),#27,.T.);
#579=ADVANCED_FACE('',(#172),#28,.T.);
#580=ADVANCED_FACE('',(#173),#144,.T.);
#581=ADVANCED_FACE('',(#174),#29,.T.);
#582=ADVANCED_FACE('',(#175),#145,.F.);
#583=ADVANCED_FACE('',(#176),#30,.T.);
#584=ADVANCED_FACE('',(#177),#31,.T.);
#585=ADVANCED_FACE('',(#178),#32,.T.);
#586=ADVANCED_FACE('',(#179),#33,.T.);
#587=ADVANCED_FACE('',(#180),#34,.T.);
#588=ADVANCED_FACE('',(#181,#17),#35,.T.);
#589=ADVANCED_FACE('',(#182,#18),#36,.F.);
#590=CLOSED_SHELL('',(#553,#554,#555,#556,#557,#558,#559,#560,#561,#562,
#563,#564,#565,#566,#567,#568,#569,#570,#571,#572,#573,#574,#575,#576,#577,
#578,#579,#580,#581,#582,#583,#584,#585,#586,#587,#588,#589));
#591=DERIVED_UNIT_ELEMENT(#593,1.);
#592=DERIVED_UNIT_ELEMENT(#1212,-3.);
#593=(
MASS_UNIT()
NAMED_UNIT(*)
SI_UNIT(.KILO.,.GRAM.)
);
#594=DERIVED_UNIT((#591,#592));
#595=MEASURE_REPRESENTATION_ITEM('density measure',
POSITIVE_RATIO_MEASURE(7850.),#594);
#596=PROPERTY_DEFINITION_REPRESENTATION(#601,#598);
#597=PROPERTY_DEFINITION_REPRESENTATION(#602,#599);
#598=REPRESENTATION('material name',(#600),#1209);
#599=REPRESENTATION('density',(#595),#1209);
#600=DESCRIPTIVE_REPRESENTATION_ITEM('Acero','Acero');
#601=PROPERTY_DEFINITION('material property','material name',#1219);
#602=PROPERTY_DEFINITION('material property','density of part',#1219);
#603=AXIS2_PLACEMENT_3D('',#854,#671,#672);
#604=AXIS2_PLACEMENT_3D('',#907,#673,#674);
#605=AXIS2_PLACEMENT_3D('',#909,#675,#676);
#606=AXIS2_PLACEMENT_3D('',#911,#677,#678);
#607=AXIS2_PLACEMENT_3D('',#912,#679,#680);
#608=AXIS2_PLACEMENT_3D('',#913,#681,#682);
#609=AXIS2_PLACEMENT_3D('',#917,#684,#685);
#610=AXIS2_PLACEMENT_3D('',#919,#687,#688);
#611=AXIS2_PLACEMENT_3D('',#922,#689,#690);
#612=AXIS2_PLACEMENT_3D('',#926,#692,#693);
#613=AXIS2_PLACEMENT_3D('',#973,#695,#696);
#614=AXIS2_PLACEMENT_3D('',#975,#697,#698);
#615=AXIS2_PLACEMENT_3D('',#976,#699,#700);
#616=AXIS2_PLACEMENT_3D('',#1029,#701,#702);
#617=AXIS2_PLACEMENT_3D('',#1031,#703,#704);
#618=AXIS2_PLACEMENT_3D('',#1032,#705,#706);
#619=AXIS2_PLACEMENT_3D('',#1033,#707,#708);
#620=AXIS2_PLACEMENT_3D('',#1034,#709,#710);
#621=AXIS2_PLACEMENT_3D('',#1038,#712,#713);
#622=AXIS2_PLACEMENT_3D('',#1040,#715,#716);
#623=AXIS2_PLACEMENT_3D('',#1043,#717,#718);
#624=AXIS2_PLACEMENT_3D('',#1047,#720,#721);
#625=AXIS2_PLACEMENT_3D('',#1094,#723,#724);
#626=AXIS2_PLACEMENT_3D('',#1096,#725,#726);
#627=AXIS2_PLACEMENT_3D('',#1097,#727,#728);
#628=AXIS2_PLACEMENT_3D('',#1098,#729,#730);
#629=AXIS2_PLACEMENT_3D('',#1104,#734,#735);
#630=AXIS2_PLACEMENT_3D('',#1110,#739,#740);
#631=AXIS2_PLACEMENT_3D('',#1116,#744,#745);
#632=AXIS2_PLACEMENT_3D('',#1119,#747,#748);
#633=AXIS2_PLACEMENT_3D('',#1120,#749,#750);
#634=AXIS2_PLACEMENT_3D('',#1121,#751,#752);
#635=AXIS2_PLACEMENT_3D('',#1122,#753,#754);
#636=AXIS2_PLACEMENT_3D('',#1123,#755,#756);
#637=AXIS2_PLACEMENT_3D('',#1124,#757,#758);
#638=AXIS2_PLACEMENT_3D('',#1127,#760,#761);
#639=AXIS2_PLACEMENT_3D('',#1128,#762,#763);
#640=AXIS2_PLACEMENT_3D('',#1130,#764,#765);
#641=AXIS2_PLACEMENT_3D('',#1132,#767,#768);
#642=AXIS2_PLACEMENT_3D('',#1133,#769,#770);
#643=AXIS2_PLACEMENT_3D('',#1134,#771,#772);
#644=AXIS2_PLACEMENT_3D('',#1138,#775,#776);
#645=AXIS2_PLACEMENT_3D('',#1140,#777,#778);
#646=AXIS2_PLACEMENT_3D('',#1143,#780,#781);
#647=AXIS2_PLACEMENT_3D('',#1144,#782,#783);
#648=AXIS2_PLACEMENT_3D('',#1145,#784,#785);
#649=AXIS2_PLACEMENT_3D('',#1147,#786,#787);
#650=AXIS2_PLACEMENT_3D('',#1150,#789,#790);
#651=AXIS2_PLACEMENT_3D('',#1151,#791,#792);
#652=AXIS2_PLACEMENT_3D('',#1152,#793,#794);
#653=AXIS2_PLACEMENT_3D('',#1158,#798,#799);
#654=AXIS2_PLACEMENT_3D('',#1159,#800,#801);
#655=AXIS2_PLACEMENT_3D('',#1160,#802,#803);
#656=AXIS2_PLACEMENT_3D('',#1164,#806,#807);
#657=AXIS2_PLACEMENT_3D('',#1168,#810,#811);
#658=AXIS2_PLACEMENT_3D('',#1174,#815,#816);
#659=AXIS2_PLACEMENT_3D('',#1175,#817,#818);
#660=AXIS2_PLACEMENT_3D('',#1176,#819,#820);
#661=AXIS2_PLACEMENT_3D('',#1180,#823,#824);
#662=AXIS2_PLACEMENT_3D('',#1182,#825,#826);
#663=AXIS2_PLACEMENT_3D('',#1185,#828,#829);
#664=AXIS2_PLACEMENT_3D('',#1186,#830,#831);
#665=AXIS2_PLACEMENT_3D('',#1192,#835,#836);
#666=AXIS2_PLACEMENT_3D('',#1196,#839,#840);
#667=AXIS2_PLACEMENT_3D('',#1199,#843,#844);
#668=AXIS2_PLACEMENT_3D('',#1203,#847,#848);
#669=AXIS2_PLACEMENT_3D('',#1205,#850,#851);
#670=AXIS2_PLACEMENT_3D('',#1206,#852,#853);
#671=DIRECTION('axis',(0.,0.,1.));
#672=DIRECTION('refdir',(1.,0.,0.));
#673=DIRECTION('center_axis',(-0.577350269189627,0.577350269189625,-0.577350269189626));
#674=DIRECTION('ref_axis',(-0.707106781186547,2.77555756156289E-16,0.707106781186548));
#675=DIRECTION('center_axis',(-0.581238193719096,-0.813733471206735,-1.29060805091696E-16));
#676=DIRECTION('ref_axis',(0.813733471206735,-0.581238193719096,0.));
#677=DIRECTION('center_axis',(-0.581238193719096,-0.813733471206735,-1.29060805091696E-16));
#678=DIRECTION('ref_axis',(0.813733471206735,-0.581238193719096,0.));
#679=DIRECTION('center_axis',(0.813733471206735,0.581238193719096,0.));
#680=DIRECTION('ref_axis',(0.581238193719096,-0.813733471206735,0.));
#681=DIRECTION('center_axis',(-0.577350269189626,0.577350269189626,-0.577350269189626));
#682=DIRECTION('ref_axis',(-0.408248290463863,0.408248290463863,0.816496580927726));
#683=DIRECTION('',(-0.577350269189626,0.577350269189626,-0.577350269189626));
#684=DIRECTION('center_axis',(0.,0.,-1.));
#685=DIRECTION('ref_axis',(-0.707106781186547,0.707106781186548,0.));
#686=DIRECTION('',(0.577350269189626,-0.577350269189626,0.577350269189626));
#687=DIRECTION('center_axis',(-0.577350269189626,-0.577350269189626,0.577350269189626));
#688=DIRECTION('ref_axis',(0.408248290463863,0.408248290463863,0.816496580927726));
#689=DIRECTION('center_axis',(0.,0.,-1.));
#690=DIRECTION('ref_axis',(0.707106781186548,0.707106781186547,8.01234452659818E-17));
#691=DIRECTION('',(-0.577350269189626,-0.577350269189626,0.577350269189626));
#692=DIRECTION('center_axis',(-0.577350269189626,-0.577350269189626,0.577350269189626));
#693=DIRECTION('ref_axis',(0.707106781186548,0.,0.707106781186548));
#694=DIRECTION('',(0.577350269189626,0.577350269189626,-0.577350269189626));
#695=DIRECTION('center_axis',(-0.813733471206735,0.581238193719096,-1.80685127128374E-16));
#696=DIRECTION('ref_axis',(-0.581238193719096,-0.813733471206735,0.));
#697=DIRECTION('center_axis',(0.581238193719096,-0.813733471206735,0.));
#698=DIRECTION('ref_axis',(-0.813733471206735,-0.581238193719097,0.));
#699=DIRECTION('center_axis',(0.581238193719096,-0.813733471206735,0.));
#700=DIRECTION('ref_axis',(-0.813733471206735,-0.581238193719097,0.));
#701=DIRECTION('center_axis',(0.577350269189626,-0.577350269189626,-0.577350269189626));
#702=DIRECTION('ref_axis',(0.707106781186547,-2.77555756156289E-16,0.707106781186548));
#703=DIRECTION('center_axis',(0.581238193719096,0.813733471206735,1.29060805091696E-16));
#704=DIRECTION('ref_axis',(-0.813733471206735,0.581238193719097,0.));
#705=DIRECTION('center_axis',(0.581238193719096,0.813733471206735,1.29060805091696E-16));
#706=DIRECTION('ref_axis',(-0.813733471206735,0.581238193719097,0.));
#707=DIRECTION('center_axis',(-0.813733471206735,-0.581238193719096,0.));
#708=DIRECTION('ref_axis',(-0.581238193719096,0.813733471206735,0.));
#709=DIRECTION('center_axis',(0.577350269189626,-0.577350269189626,-0.577350269189626));
#710=DIRECTION('ref_axis',(0.408248290463863,-0.408248290463863,0.816496580927726));
#711=DIRECTION('',(0.577350269189626,-0.577350269189626,-0.577350269189626));
#712=DIRECTION('center_axis',(0.,0.,-1.));
#713=DIRECTION('ref_axis',(0.707106781186548,-0.707106781186547,8.01234452659818E-17));
#714=DIRECTION('',(-0.577350269189626,0.577350269189626,0.577350269189626));
#715=DIRECTION('center_axis',(0.577350269189626,0.577350269189626,0.577350269189626));
#716=DIRECTION('ref_axis',(-0.408248290463863,-0.408248290463864,0.816496580927726));
#717=DIRECTION('center_axis',(0.,0.,-1.));
#718=DIRECTION('ref_axis',(-0.707106781186547,-0.707106781186548,0.));
#719=DIRECTION('',(0.577350269189626,0.577350269189626,0.577350269189626));
#720=DIRECTION('center_axis',(0.577350269189627,0.577350269189624,0.577350269189627));
#721=DIRECTION('ref_axis',(-0.707106781186548,2.77555756156289E-16,0.707106781186547));
#722=DIRECTION('',(-0.577350269189626,-0.577350269189626,-0.577350269189626));
#723=DIRECTION('center_axis',(0.813733471206735,-0.581238193719096,1.80685127128374E-16));
#724=DIRECTION('ref_axis',(0.581238193719096,0.813733471206735,0.));
#725=DIRECTION('center_axis',(-0.581238193719096,0.813733471206735,0.));
#726=DIRECTION('ref_axis',(0.813733471206735,0.581238193719097,0.));
#727=DIRECTION('center_axis',(-0.581238193719096,0.813733471206735,0.));
#728=DIRECTION('ref_axis',(0.813733471206735,0.581238193719097,0.));
#729=DIRECTION('center_axis',(0.,-0.707106781186548,-0.707106781186547));
#730=DIRECTION('ref_axis',(0.,0.707106781186547,-0.707106781186548));
#731=DIRECTION('',(1.,0.,0.));
#732=DIRECTION('',(0.,-0.707106781186547,0.707106781186548));
#733=DIRECTION('',(1.,0.,0.));
#734=DIRECTION('center_axis',(0.707106781186548,0.,-0.707106781186547));
#735=DIRECTION('ref_axis',(-0.707106781186547,0.,-0.707106781186548));
#736=DIRECTION('',(0.,1.,0.));
#737=DIRECTION('',(0.707106781186547,0.,0.707106781186548));
#738=DIRECTION('',(0.,1.,0.));
#739=DIRECTION('center_axis',(-0.707106781186547,0.,-0.707106781186548));
#740=DIRECTION('ref_axis',(-0.707106781186548,0.,0.707106781186547));
#741=DIRECTION('',(0.,1.,0.));
#742=DIRECTION('',(-0.707106781186548,0.,0.707106781186547));
#743=DIRECTION('',(0.,1.,0.));
#744=DIRECTION('center_axis',(1.,0.,0.));
#745=DIRECTION('ref_axis',(0.,0.707106781186547,-0.707106781186547));
#746=DIRECTION('',(1.,0.,0.));
#747=DIRECTION('center_axis',(1.,0.,0.));
#748=DIRECTION('ref_axis',(0.,0.707106781186547,-0.707106781186547));
#749=DIRECTION('center_axis',(1.,0.,0.));
#750=DIRECTION('ref_axis',(0.,-2.22044604925031E-16,1.));
#751=DIRECTION('center_axis',(1.,0.,0.));
#752=DIRECTION('ref_axis',(0.,0.707106781186547,-0.707106781186547));
#753=DIRECTION('center_axis',(1.,0.,0.));
#754=DIRECTION('ref_axis',(0.,0.707106781186547,-0.707106781186547));
#755=DIRECTION('center_axis',(1.,0.,0.));
#756=DIRECTION('ref_axis',(0.,0.707106781186547,-0.707106781186547));
#757=DIRECTION('center_axis',(0.,1.,0.));
#758=DIRECTION('ref_axis',(-2.22044604925031E-16,0.,1.));
#759=DIRECTION('',(0.,1.,0.));
#760=DIRECTION('center_axis',(0.,1.,0.));
#761=DIRECTION('ref_axis',(-0.707106781186547,0.,-0.707106781186548));
#762=DIRECTION('center_axis',(1.,0.,0.));
#763=DIRECTION('ref_axis',(0.,0.707106781186547,-0.707106781186547));
#764=DIRECTION('center_axis',(1.,0.,0.));
#765=DIRECTION('ref_axis',(0.,0.707106781186547,-0.707106781186547));
#766=DIRECTION('',(1.,0.,0.));
#767=DIRECTION('center_axis',(1.,0.,0.));
#768=DIRECTION('ref_axis',(0.,1.11022302462516E-16,1.));
#769=DIRECTION('center_axis',(1.,0.,0.));
#770=DIRECTION('ref_axis',(0.,0.707106781186547,-0.707106781186547));
#771=DIRECTION('center_axis',(0.707106781186548,0.,-0.707106781186547));
#772=DIRECTION('ref_axis',(-0.707106781186547,0.,-0.707106781186548));
#773=DIRECTION('',(0.,1.,0.));
#774=DIRECTION('',(-0.707106781186547,0.,-0.707106781186548));
#775=DIRECTION('center_axis',(0.,-1.,0.));
#776=DIRECTION('ref_axis',(1.,0.,0.));
#777=DIRECTION('center_axis',(0.,1.,0.));
#778=DIRECTION('ref_axis',(1.,0.,0.));
#779=DIRECTION('',(0.,1.,0.));
#780=DIRECTION('center_axis',(0.,-1.,0.));
#781=DIRECTION('ref_axis',(1.,0.,0.));
#782=DIRECTION('center_axis',(0.,1.,0.));
#783=DIRECTION('ref_axis',(1.,0.,0.));
#784=DIRECTION('center_axis',(0.,-1.,0.));
#785=DIRECTION('ref_axis',(1.,0.,0.));
#786=DIRECTION('center_axis',(0.,-1.,0.));
#787=DIRECTION('ref_axis',(1.,0.,0.));
#788=DIRECTION('',(0.,-1.,0.));
#789=DIRECTION('center_axis',(0.,-1.,0.));
#790=DIRECTION('ref_axis',(1.,0.,0.));
#791=DIRECTION('center_axis',(0.,1.,0.));
#792=DIRECTION('ref_axis',(1.,0.,0.));
#793=DIRECTION('center_axis',(-0.707106781186547,0.,-0.707106781186548));
#794=DIRECTION('ref_axis',(-0.707106781186548,0.,0.707106781186547));
#795=DIRECTION('',(0.,1.,0.));
#796=DIRECTION('',(0.707106781186548,0.,-0.707106781186547));
#797=DIRECTION('',(0.,1.,0.));
#798=DIRECTION('center_axis',(0.,1.,0.));
#799=DIRECTION('ref_axis',(-2.22044604925031E-16,0.,1.));
#800=DIRECTION('center_axis',(0.,-1.,0.));
#801=DIRECTION('ref_axis',(-0.707106781186547,0.,-0.707106781186548));
#802=DIRECTION('center_axis',(0.,1.,0.));
#803=DIRECTION('ref_axis',(1.,0.,0.));
#804=DIRECTION('',(1.,0.,0.));
#805=DIRECTION('',(1.,0.,0.));
#806=DIRECTION('center_axis',(0.,1.,0.));
#807=DIRECTION('ref_axis',(1.,0.,0.));
#808=DIRECTION('',(-1.,0.,0.));
#809=DIRECTION('',(-1.,0.,0.));
#810=DIRECTION('center_axis',(0.,-0.707106781186548,-0.707106781186547));
#811=DIRECTION('ref_axis',(0.,0.707106781186547,-0.707106781186548));
#812=DIRECTION('',(1.,0.,0.));
#813=DIRECTION('',(0.,0.707106781186547,-0.707106781186548));
#814=DIRECTION('',(1.,0.,0.));
#815=DIRECTION('center_axis',(1.,0.,0.));
#816=DIRECTION('ref_axis',(0.,0.707106781186547,-0.707106781186547));
#817=DIRECTION('center_axis',(1.,0.,0.));
#818=DIRECTION('ref_axis',(0.,0.707106781186547,-0.707106781186547));
#819=DIRECTION('center_axis',(0.,0.707106781186548,-0.707106781186547));
#820=DIRECTION('ref_axis',(0.,0.707106781186547,0.707106781186548));
#821=DIRECTION('',(1.,0.,0.));
#822=DIRECTION('',(0.,0.707106781186547,0.707106781186548));
#823=DIRECTION('center_axis',(1.,0.,0.));
#824=DIRECTION('ref_axis',(0.,1.,0.));
#825=DIRECTION('center_axis',(-1.,0.,0.));
#826=DIRECTION('ref_axis',(0.,1.,0.));
#827=DIRECTION('',(-1.,0.,0.));
#828=DIRECTION('center_axis',(-1.,0.,0.));
#829=DIRECTION('ref_axis',(0.,1.,0.));
#830=DIRECTION('center_axis',(0.,0.,-1.));
#831=DIRECTION('ref_axis',(-1.,0.,0.));
#832=DIRECTION('',(0.,1.,0.));
#833=DIRECTION('',(0.,-1.,0.));
#834=DIRECTION('',(1.,0.,0.));
#835=DIRECTION('center_axis',(0.,0.,-1.));
#836=DIRECTION('ref_axis',(0.,1.,0.));
#837=DIRECTION('',(1.,0.,0.));
#838=DIRECTION('',(0.,1.,0.));
#839=DIRECTION('center_axis',(0.,0.,-1.));
#840=DIRECTION('ref_axis',(-1.,0.,0.));
#841=DIRECTION('',(0.,1.,0.));
#842=DIRECTION('',(0.,1.,0.));
#843=DIRECTION('center_axis',(0.,0.,-1.));
#844=DIRECTION('ref_axis',(0.,1.,0.));
#845=DIRECTION('',(1.,0.,0.));
#846=DIRECTION('',(0.,1.,0.));
#847=DIRECTION('center_axis',(0.,0.707106781186548,-0.707106781186547));
#848=DIRECTION('ref_axis',(0.,0.707106781186547,0.707106781186548));
#849=DIRECTION('',(0.,0.707106781186547,0.707106781186548));
#850=DIRECTION('center_axis',(1.,0.,0.));
#851=DIRECTION('ref_axis',(0.,1.,0.));
#852=DIRECTION('center_axis',(1.,0.,0.));
#853=DIRECTION('ref_axis',(0.,1.,0.));
#854=CARTESIAN_POINT('',(0.,0.,0.));
#855=CARTESIAN_POINT('Ctrl Pts',(7.,5.55111512312578E-16,5.));
#856=CARTESIAN_POINT('Ctrl Pts',(7.78539816339745,-0.560998688141034,5.));
#857=CARTESIAN_POINT('Ctrl Pts',(9.35595290158649,-1.6828235011332,4.80937389774641));
#858=CARTESIAN_POINT('Ctrl Pts',(11.4479080721382,-3.1770771943844,3.98388028213086));
#859=CARTESIAN_POINT('Ctrl Pts',(13.0399463855456,-4.31424741824683,2.71083031964628));
#860=CARTESIAN_POINT('Ctrl Pts',(13.9549744503856,-4.96783889313257,1.13388633510761));
#861=CARTESIAN_POINT('Ctrl Pts',(14.0884723922565,-5.06319456589753,-0.570493104264354));
#862=CARTESIAN_POINT('Ctrl Pts',(13.4273001295081,-4.59092866393439,-2.2108292888683));
#863=CARTESIAN_POINT('Ctrl Pts',(12.5051078355756,-3.93221988255402,-3.13884792931145));
#864=CARTESIAN_POINT('Ctrl Pts',(11.9497474683058,-3.53553390593274,-3.53553390593274));
#865=CARTESIAN_POINT('Ctrl Pts',(7.,3.55686663108834E-16,5.));
#866=CARTESIAN_POINT('Ctrl Pts',(7.74265540620575,-0.603741445332733,5.));
#867=CARTESIAN_POINT('Ctrl Pts',(9.22781743134799,-1.81109561323693,4.77918220924957));
#868=CARTESIAN_POINT('Ctrl Pts',(11.1774932752613,-3.36381955941481,3.84657733281715));
#869=CARTESIAN_POINT('Ctrl Pts',(12.6070591075265,-4.44889969717474,2.49056890961145));
#870=CARTESIAN_POINT('Ctrl Pts',(13.3676654550143,-4.97809125990695,0.981451620957668));
#871=CARTESIAN_POINT('Ctrl Pts',(13.4715668955884,-5.04553998463962,-0.488652897868155));
#872=CARTESIAN_POINT('Ctrl Pts',(12.9385770868683,-4.68700290353328,-1.98844805057685));
#873=CARTESIAN_POINT('Ctrl Pts',(12.1267118396143,-4.08427232088601,-2.94929527686701));
#874=CARTESIAN_POINT('Ctrl Pts',(11.6240205273123,-3.69839737642948,-3.37267043543599));
#875=CARTESIAN_POINT('Ctrl Pts',(7.,6.69317700228261E-18,5.));
#876=CARTESIAN_POINT('Ctrl Pts',(7.66785558112028,-0.678541270418203,5.));
#877=CARTESIAN_POINT('Ctrl Pts',(9.00334688582147,-2.03540778202325,4.75623035717711));
#878=CARTESIAN_POINT('Ctrl Pts',(10.7032965283608,-3.77057251086655,3.73904470530764));
#879=CARTESIAN_POINT('Ctrl Pts',(11.8512261697173,-4.95595963079392,2.30575395188472));
#880=CARTESIAN_POINT('Ctrl Pts',(12.3517776434654,-5.48649687997804,0.8470682429646));
#881=CARTESIAN_POINT('Ctrl Pts',(12.4058543928962,-5.54564195274428,-0.415277786727254));
#882=CARTESIAN_POINT('Ctrl Pts',(12.0868241128138,-5.20310462984973,-1.79842397020387));
#883=CARTESIAN_POINT('Ctrl Pts',(11.467029234553,-4.55916755661788,-2.79382776454073));
#884=CARTESIAN_POINT('Ctrl Pts',(11.0551275908358,-4.13504679023754,-3.24042691276754));
#885=CARTESIAN_POINT('Ctrl Pts',(7.,-3.42300309104269E-16,5.));
#886=CARTESIAN_POINT('Ctrl Pts',(7.59305575603481,-0.753341095503676,5.));
#887=CARTESIAN_POINT('Ctrl Pts',(8.7789475514591,-2.2597772072184,4.7865415438638));
#888=CARTESIAN_POINT('Ctrl Pts',(10.3166806898264,-4.24467538895588,3.88075537815886));
#889=CARTESIAN_POINT('Ctrl Pts',(11.4149328789735,-5.71499396452769,2.54595483133953));
#890=CARTESIAN_POINT('Ctrl Pts',(11.9763711751273,-6.51528025025041,1.02068906551487));
#891=CARTESIAN_POINT('Ctrl Pts',(12.0507858194568,-6.62657394355062,-0.509574792104598));
#892=CARTESIAN_POINT('Ctrl Pts',(11.6626541563296,-6.06044403266726,-2.04502708027684));
#893=CARTESIAN_POINT('Ctrl Pts',(11.046508656616,-5.22154201985986,-2.99699582626358));
#894=CARTESIAN_POINT('Ctrl Pts',(10.6576815088053,-4.70545226256072,-3.41338630306018));
#895=CARTESIAN_POINT('Ctrl Pts',(7.,-4.91868946007077E-16,5.));
#896=CARTESIAN_POINT('Ctrl Pts',(7.56099868814103,-0.785398163397449,5.));
#897=CARTESIAN_POINT('Ctrl Pts',(8.68282350113321,-2.35595290158648,4.80937389774641));
#898=CARTESIAN_POINT('Ctrl Pts',(10.1770771943844,-4.44790807213816,3.98388028213086));
#899=CARTESIAN_POINT('Ctrl Pts',(11.3142474182468,-6.03994638554556,2.71083031964628));
#900=CARTESIAN_POINT('Ctrl Pts',(11.9678388931326,-6.95497445038559,1.13388633510761));
#901=CARTESIAN_POINT('Ctrl Pts',(12.0631945658975,-7.08847239225655,-0.570493104264355));
#902=CARTESIAN_POINT('Ctrl Pts',(11.5909286639344,-6.42730012950815,-2.2108292888683));
#903=CARTESIAN_POINT('Ctrl Pts',(10.932219882554,-5.50510783557563,-3.13884792931146));
#904=CARTESIAN_POINT('Ctrl Pts',(10.5355339059327,-4.94974746830583,-3.53553390593274));
#905=CARTESIAN_POINT('',(10.5355339059327,-4.94974746830583,-3.53553390593274));
#906=CARTESIAN_POINT('',(11.9497474683058,-3.53553390593274,-3.53553390593274));
#907=CARTESIAN_POINT('Origin',(11.9497474683058,-4.94974746830583,-4.94974746830583));
#908=CARTESIAN_POINT('',(14.,-5.,-7.93016446160826E-16));
#909=CARTESIAN_POINT('Origin',(7.,0.,0.));
#910=CARTESIAN_POINT('',(7.,0.,5.));
#911=CARTESIAN_POINT('Origin',(7.,0.,0.));
#912=CARTESIAN_POINT('Origin',(7.,0.,0.));
#913=CARTESIAN_POINT('Origin',(9.13316497887056,-2.13316497887056,-7.76632995774111));
#914=CARTESIAN_POINT('',(9.07106792362418,-3.48528148599728,-4.99999988824129));
#915=CARTESIAN_POINT('',(7.71895141649746,-2.13316497887056,-6.35211639536802));
#916=CARTESIAN_POINT('',(10.4852814859973,-2.07106792362418,-4.99999988824129));
#917=CARTESIAN_POINT('Origin',(11.8994950483704,-4.89949504837037,-4.99999988824129));
#918=CARTESIAN_POINT('',(9.13316497887056,-0.71895141649746,-6.35211639536801));
#919=CARTESIAN_POINT('Origin',(3.0216570152323,-3.9783429847677,-5.92115195184396));
#920=CARTESIAN_POINT('',(3.51471851400272,-2.07106792362418,-4.99999988824129));
#921=CARTESIAN_POINT('',(4.92893207637582,-3.48528148599728,-4.99999988824129));
#922=CARTESIAN_POINT('Origin',(2.10050495162963,-4.89949504837037,-4.99999988824129));
#923=CARTESIAN_POINT('',(3.46446609406726,-4.94974746830583,-3.53553390593274));
#924=CARTESIAN_POINT('',(4.43587057760539,-3.9783429847677,-4.50693838947087));
#925=CARTESIAN_POINT('',(2.05025253169417,-3.53553390593274,-3.53553390593274));
#926=CARTESIAN_POINT('Origin',(2.05025253169417,-4.94974746830583,-4.94974746830583));
#927=CARTESIAN_POINT('',(3.0216570152323,-2.56412942239461,-4.50693838947087));
#928=CARTESIAN_POINT('Ctrl Pts',(2.05025253169417,-3.53553390593274,-3.53553390593274));
#929=CARTESIAN_POINT('Ctrl Pts',(1.49489216442437,-3.93221988255402,-3.13884792931146));
#930=CARTESIAN_POINT('Ctrl Pts',(0.573358712621941,-4.5904580624129,-2.21110090236445));
#931=CARTESIAN_POINT('Ctrl Pts',(-0.0896598648453238,-5.0640427606038,-0.56986929896946));
#932=CARTESIAN_POINT('Ctrl Pts',(0.0467451604117193,-4.96661059970592,1.13267407914831));
#933=CARTESIAN_POINT('Ctrl Pts',(1.26024457235581,-4.09982530546014,3.24043384683963));
#934=CARTESIAN_POINT('Ctrl Pts',(3.85277073502772,-2.24802090355162,4.71947315094863));
#935=CARTESIAN_POINT('Ctrl Pts',(6.21460183660255,-0.560998688141034,5.));
#936=CARTESIAN_POINT('Ctrl Pts',(7.,5.55111512312578E-16,5.));
#937=CARTESIAN_POINT('Ctrl Pts',(2.37597947268766,-3.69839737642948,-3.37267043543599));
#938=CARTESIAN_POINT('Ctrl Pts',(1.87328816038566,-4.08427232088601,-2.94929527686702));
#939=CARTESIAN_POINT('Ctrl Pts',(1.06215560357618,-4.68649192106273,-1.99083628732191));
#940=CARTESIAN_POINT('Ctrl Pts',(0.527751455353847,-5.04574908204751,-0.486489296487149));
#941=CARTESIAN_POINT('Ctrl Pts',(0.633959098076573,-4.97678905997797,0.980810463321388));
#942=CARTESIAN_POINT('Ctrl Pts',(1.63885766164554,-4.28206915627642,2.99951411150327));
#943=CARTESIAN_POINT('Ctrl Pts',(4.02015924207736,-2.42707967726722,4.67896765260034));
#944=CARTESIAN_POINT('Ctrl Pts',(6.25734459379425,-0.603741445332733,5.));
#945=CARTESIAN_POINT('Ctrl Pts',(7.,5.55111512312578E-16,5.));
#946=CARTESIAN_POINT('Ctrl Pts',(2.94490395591661,-4.13500811946672,-3.24035669524428));
#947=CARTESIAN_POINT('Ctrl Pts',(2.53300231219944,-4.55912888584707,-2.79375754701747));
#948=CARTESIAN_POINT('Ctrl Pts',(1.91460664736432,-5.20160988943383,-1.8010583394947));
#949=CARTESIAN_POINT('Ctrl Pts',(1.59343870795274,-5.5463835076644,-0.411850736485496));
#950=CARTESIAN_POINT('Ctrl Pts',(1.65150243616824,-5.48315674513748,0.844825309489296));
#951=CARTESIAN_POINT('Ctrl Pts',(2.30306674520686,-4.79101843868601,2.8023299881287));
#952=CARTESIAN_POINT('Ctrl Pts',(4.31310819939366,-2.72873518877873,4.65127314300143));
#953=CARTESIAN_POINT('Ctrl Pts',(6.33214441887972,-0.678541270418203,5.));
#954=CARTESIAN_POINT('Ctrl Pts',(7.,5.55111512312578E-16,5.));
#955=CARTESIAN_POINT('Ctrl Pts',(3.34231849119471,-4.70545226256071,-3.41338630306018));
#956=CARTESIAN_POINT('Ctrl Pts',(2.953491343384,-5.22154201985986,-2.99699582626358));
#957=CARTESIAN_POINT('Ctrl Pts',(2.33801852482069,-6.05957088681647,-2.04631340597871));
#958=CARTESIAN_POINT('Ctrl Pts',(1.94846486770699,-6.62773820129197,-0.507989467030902));
#959=CARTESIAN_POINT('Ctrl Pts',(2.02548612754562,-6.51309567880479,1.019440022839));
#960=CARTESIAN_POINT('Ctrl Pts',(2.76414007140944,-5.45518658464641,3.0600233560572));
#961=CARTESIAN_POINT('Ctrl Pts',(4.61773082962722,-3.02164829430869,4.68869404179174));
#962=CARTESIAN_POINT('Ctrl Pts',(6.40694424396519,-0.753341095503676,5.));
#963=CARTESIAN_POINT('Ctrl Pts',(7.,5.55111512312578E-16,5.));
#964=CARTESIAN_POINT('Ctrl Pts',(3.46446609406727,-4.94974746830583,-3.53553390593274));
#965=CARTESIAN_POINT('Ctrl Pts',(3.06778011744598,-5.50510783557563,-3.13884792931146));
#966=CARTESIAN_POINT('Ctrl Pts',(2.4095419375871,-6.42664128737806,-2.21110090236446));
#967=CARTESIAN_POINT('Ctrl Pts',(1.9359572393962,-7.08965986484532,-0.56986929896946));
#968=CARTESIAN_POINT('Ctrl Pts',(2.03338940029409,-6.95325483958829,1.13267407914831));
#969=CARTESIAN_POINT('Ctrl Pts',(2.90017469453987,-5.73975542764419,3.24043384683963));
#970=CARTESIAN_POINT('Ctrl Pts',(4.75197909644838,-3.14722926497228,4.71947315094863));
#971=CARTESIAN_POINT('Ctrl Pts',(6.43900131185897,-0.785398163397449,5.));
#972=CARTESIAN_POINT('Ctrl Pts',(7.,5.55111512312578E-16,5.));
#973=CARTESIAN_POINT('Origin',(7.,0.,0.));
#974=CARTESIAN_POINT('',(0.,-5.,0.));
#975=CARTESIAN_POINT('Origin',(7.,0.,0.));
#976=CARTESIAN_POINT('Origin',(7.,0.,0.));
#977=CARTESIAN_POINT('Ctrl Pts',(7.,5.55111512312578E-16,5.));
#978=CARTESIAN_POINT('Ctrl Pts',(6.21460183660255,0.560998688141035,5.));
#979=CARTESIAN_POINT('Ctrl Pts',(4.64404329411139,1.68282621849186,4.80938897672466));
#980=CARTESIAN_POINT('Ctrl Pts',(2.5521069227402,3.177066483757,3.98386723718069));
#981=CARTESIAN_POINT('Ctrl Pts',(0.960036604606849,4.31425956813797,2.71083860687026));
#982=CARTESIAN_POINT('Ctrl Pts',(0.0450434769828412,4.9678260878694,1.13387963943434));
#983=CARTESIAN_POINT('Ctrl Pts',(-0.0884963328699803,5.0632116663357,-0.570496599768173));
#984=CARTESIAN_POINT('Ctrl Pts',(0.572708409739153,4.59092256447203,-2.21083677488637));
#985=CARTESIAN_POINT('Ctrl Pts',(1.49489216442437,3.93221988255402,-3.13884792931146));
#986=CARTESIAN_POINT('Ctrl Pts',(2.05025253169417,3.53553390593274,-3.53553390593274));
#987=CARTESIAN_POINT('Ctrl Pts',(7.,5.55111512312578E-16,5.));
#988=CARTESIAN_POINT('Ctrl Pts',(6.25734459379425,0.603741445332734,5.));
#989=CARTESIAN_POINT('Ctrl Pts',(4.7722169297355,1.81098233606445,4.77912801415799));
#990=CARTESIAN_POINT('Ctrl Pts',(2.82258721186788,3.36364376829973,3.84655457003325));
#991=CARTESIAN_POINT('Ctrl Pts',(1.39291408468122,4.44889565143942,2.49077942940079));
#992=CARTESIAN_POINT('Ctrl Pts',(0.632191768470866,4.97845314710104,0.981697895404028));
#993=CARTESIAN_POINT('Ctrl Pts',(0.528278518765326,5.04591969629978,-0.488717385433333));
#994=CARTESIAN_POINT('Ctrl Pts',(1.06138496784521,4.68713436989134,-1.98885227668167));
#995=CARTESIAN_POINT('Ctrl Pts',(1.87328816038566,4.08427232088601,-2.94929527686701));
#996=CARTESIAN_POINT('Ctrl Pts',(2.37597947268766,3.69839737642948,-3.37267043543599));
#997=CARTESIAN_POINT('Ctrl Pts',(7.,5.55111512312578E-16,5.));
#998=CARTESIAN_POINT('Ctrl Pts',(6.33214441887972,0.678541270418203,5.));
#999=CARTESIAN_POINT('Ctrl Pts',(4.99658013511075,2.03549852878733,4.75626852999126));
#1000=CARTESIAN_POINT('Ctrl Pts',(3.29672507302531,3.7705656742513,3.73896916660341));
#1001=CARTESIAN_POINT('Ctrl Pts',(2.14869303766571,4.95602675788539,2.30553105430753));
#1002=CARTESIAN_POINT('Ctrl Pts',(1.64847285701868,5.48615715931367,0.846943356689561));
#1003=CARTESIAN_POINT('Ctrl Pts',(1.59461692082341,5.54507015124617,-0.415060306202892));
#1004=CARTESIAN_POINT('Ctrl Pts',(1.91334063834879,5.20288680253631,-1.7984071797388));
#1005=CARTESIAN_POINT('Ctrl Pts',(2.53300230766416,4.55912889140652,-2.7937575571122));
#1006=CARTESIAN_POINT('Ctrl Pts',(2.94490395138133,4.13500812502618,-3.24035670533901));
#1007=CARTESIAN_POINT('Ctrl Pts',(7.,5.55111512312578E-16,5.));
#1008=CARTESIAN_POINT('Ctrl Pts',(6.40694424396519,0.753341095503676,5.));
#1009=CARTESIAN_POINT('Ctrl Pts',(5.22106901554696,2.25981532710947,4.78655544113019));
#1010=CARTESIAN_POINT('Ctrl Pts',(3.68337507819687,4.24468471500205,3.88073665497906));
#1011=CARTESIAN_POINT('Ctrl Pts',(2.58502008763794,5.71506286117693,2.54596678852085));
#1012=CARTESIAN_POINT('Ctrl Pts',(2.02354005488149,6.51521529279933,1.02071328325825));
#1013=CARTESIAN_POINT('Ctrl Pts',(1.94915242533488,6.62648307680224,-0.509541624712907));
#1014=CARTESIAN_POINT('Ctrl Pts',(2.33730428166576,6.0604193059659,-2.04512247931049));
#1015=CARTESIAN_POINT('Ctrl Pts',(2.953491343384,5.22154201985986,-2.99699582626358));
#1016=CARTESIAN_POINT('Ctrl Pts',(3.34231849119471,4.70545226256072,-3.41338630306018));
#1017=CARTESIAN_POINT('Ctrl Pts',(7.,5.55111512312578E-16,5.));
#1018=CARTESIAN_POINT('Ctrl Pts',(6.43900131185897,0.785398163397449,5.));
#1019=CARTESIAN_POINT('Ctrl Pts',(5.31717378150814,2.35595670588861,4.80938897672466));
#1020=CARTESIAN_POINT('Ctrl Pts',(3.822933516243,4.4478930772598,3.98386723718069));
#1021=CARTESIAN_POINT('Ctrl Pts',(2.68574043186204,6.03996339539315,2.71083860687026));
#1022=CARTESIAN_POINT('Ctrl Pts',(2.0321739121306,6.95495652301716,1.13387963943434));
#1023=CARTESIAN_POINT('Ctrl Pts',(1.9367883336643,7.08849633286998,-0.570496599768173));
#1024=CARTESIAN_POINT('Ctrl Pts',(2.40907743552797,6.42729159026085,-2.21083677488637));
#1025=CARTESIAN_POINT('Ctrl Pts',(3.06778011744598,5.50510783557563,-3.13884792931146));
#1026=CARTESIAN_POINT('Ctrl Pts',(3.46446609406726,4.94974746830583,-3.53553390593274));
#1027=CARTESIAN_POINT('',(3.46446609406726,4.94974746830583,-3.53553390593274));
#1028=CARTESIAN_POINT('',(2.05025253169417,3.53553390593274,-3.53553390593274));
#1029=CARTESIAN_POINT('Origin',(2.05025253169417,4.94974746830583,-4.94974746830583));
#1030=CARTESIAN_POINT('',(0.,5.,7.93016446160826E-16));
#1031=CARTESIAN_POINT('Origin',(7.,0.,0.));
#1032=CARTESIAN_POINT('Origin',(7.,0.,0.));
#1033=CARTESIAN_POINT('Origin',(7.,0.,0.));
#1034=CARTESIAN_POINT('Origin',(3.50981234266848,3.49018765733152,-6.40930727928015));
#1035=CARTESIAN_POINT('',(4.92893207637582,3.48528148599728,-4.99999988824129));
#1036=CARTESIAN_POINT('',(4.92402590504158,3.49018765733152,-4.99509371690705));
#1037=CARTESIAN_POINT('',(3.51471851400272,2.07106792362418,-4.99999988824129));
#1038=CARTESIAN_POINT('Origin',(2.10050495162963,4.89949504837037,-4.99999988824129));
#1039=CARTESIAN_POINT('',(3.50981234266848,2.07597409495842,-4.99509371690705));
#1040=CARTESIAN_POINT('Origin',(8.64500965143437,1.64500965143437,-8.2544852851773));
#1041=CARTESIAN_POINT('',(10.4852814859973,2.07106792362418,-4.99999988824129));
#1042=CARTESIAN_POINT('',(9.07106792362418,3.48528148599728,-4.99999988824129));
#1043=CARTESIAN_POINT('Origin',(11.8994950483704,4.89949504837037,-4.99999988824129));
#1044=CARTESIAN_POINT('',(10.5355339059327,4.94974746830584,-3.53553390593274));
#1045=CARTESIAN_POINT('',(7.23079608906128,1.64500965143437,-6.8402717228042));
#1046=CARTESIAN_POINT('',(11.9497474683058,3.53553390593274,-3.53553390593274));
#1047=CARTESIAN_POINT('Origin',(11.9497474683058,4.94974746830584,-4.94974746830583));
#1048=CARTESIAN_POINT('',(8.64500965143437,0.230796089061275,-6.8402717228042));
#1049=CARTESIAN_POINT('Ctrl Pts',(11.9497474683058,3.53553390593274,-3.53553390593274));
#1050=CARTESIAN_POINT('Ctrl Pts',(12.5051078355756,3.93221988255402,-3.13884792931146));
#1051=CARTESIAN_POINT('Ctrl Pts',(13.4266599006562,4.59047135761156,-2.21106093735558));
#1052=CARTESIAN_POINT('Ctrl Pts',(14.089648044092,5.06403431720856,-0.569900170245513));
#1053=CARTESIAN_POINT('Ctrl Pts',(13.9533095258785,4.96664966134177,1.13273564440525));
#1054=CARTESIAN_POINT('Ctrl Pts',(12.739666730688,4.09976195049146,3.24033813405904));
#1055=CARTESIAN_POINT('Ctrl Pts',(10.1472987414059,2.24807052957562,4.71952540727059));
#1056=CARTESIAN_POINT('Ctrl Pts',(7.78539816339745,0.560998688141035,5.));
#1057=CARTESIAN_POINT('Ctrl Pts',(7.,5.55111512312578E-16,5.));
#1058=CARTESIAN_POINT('Ctrl Pts',(11.6240205273123,3.69839737642948,-3.37267043543599));
#1059=CARTESIAN_POINT('Ctrl Pts',(12.1267118396143,4.08427232088601,-2.94929527686702));
#1060=CARTESIAN_POINT('Ctrl Pts',(12.937780394442,4.68632601862921,-1.99045676681962));
#1061=CARTESIAN_POINT('Ctrl Pts',(13.472027945466,5.04525195864398,-0.486359086531812));
#1062=CARTESIAN_POINT('Ctrl Pts',(13.3660262275396,4.97662181991332,0.980812369892875));
#1063=CARTESIAN_POINT('Ctrl Pts',(12.3611362723979,4.28215128359523,2.99909511400246));
#1064=CARTESIAN_POINT('Ctrl Pts',(9.9800326919893,2.42742386230411,4.67920182050806));
#1065=CARTESIAN_POINT('Ctrl Pts',(7.74265540620575,0.603741445332733,5.));
#1066=CARTESIAN_POINT('Ctrl Pts',(7.,6.48800835361545E-16,5.));
#1067=CARTESIAN_POINT('Ctrl Pts',(11.0551275908358,4.13504679023754,-3.24042691276754));
#1068=CARTESIAN_POINT('Ctrl Pts',(11.467029234553,4.55916755661788,-2.79382776454072));
#1069=CARTESIAN_POINT('Ctrl Pts',(12.085567627185,5.20184056526839,-1.80127456588188));
#1070=CARTESIAN_POINT('Ctrl Pts',(12.4067743062159,5.54670059859496,-0.411876438295945));
#1071=CARTESIAN_POINT('Ctrl Pts',(12.3490621628644,5.48379879489452,0.845485507246802));
#1072=CARTESIAN_POINT('Ctrl Pts',(11.6967414441675,4.79082424748618,2.8021015085411));
#1073=CARTESIAN_POINT('Ctrl Pts',(9.68707296743488,2.72887888792827,4.65144802816272));
#1074=CARTESIAN_POINT('Ctrl Pts',(7.66785558112028,0.678541270418204,5.));
#1075=CARTESIAN_POINT('Ctrl Pts',(7.,8.12757150697238E-16,5.));
#1076=CARTESIAN_POINT('Ctrl Pts',(10.6576815088053,4.70545226256072,-3.41338630306018));
#1077=CARTESIAN_POINT('Ctrl Pts',(11.046508656616,5.22154201985986,-2.99699582626358));
#1078=CARTESIAN_POINT('Ctrl Pts',(11.661944809297,6.05960573571014,-2.04625251587039));
#1079=CARTESIAN_POINT('Ctrl Pts',(12.0513826795764,6.62777800756731,-0.507979897265368));
#1080=CARTESIAN_POINT('Ctrl Pts',(11.974577070153,6.51326541205379,1.01962121443531));
#1081=CARTESIAN_POINT('Ctrl Pts',(11.2357674456718,5.45502995611159,3.05981498939127));
#1082=CARTESIAN_POINT('Ctrl Pts',(9.38245152242327,3.02172779169351,4.68880015183424));
#1083=CARTESIAN_POINT('Ctrl Pts',(7.59305575603481,0.753341095503677,5.));
#1084=CARTESIAN_POINT('Ctrl Pts',(7.,9.7671346603293E-16,5.));
#1085=CARTESIAN_POINT('Ctrl Pts',(10.5355339059327,4.94974746830583,-3.53553390593274));
#1086=CARTESIAN_POINT('Ctrl Pts',(10.932219882554,5.50510783557563,-3.13884792931146));
#1087=CARTESIAN_POINT('Ctrl Pts',(11.5904713576116,6.42665990065618,-2.21106093735558));
#1088=CARTESIAN_POINT('Ctrl Pts',(12.0640343172086,7.08964804409199,-0.569900170245513));
#1089=CARTESIAN_POINT('Ctrl Pts',(11.9666496613418,6.95330952587848,1.13273564440525));
#1090=CARTESIAN_POINT('Ctrl Pts',(11.0997619504915,5.73966673068804,3.24033813405904));
#1091=CARTESIAN_POINT('Ctrl Pts',(9.24807052957562,3.14729874140586,4.71952540727059));
#1092=CARTESIAN_POINT('Ctrl Pts',(7.56099868814103,0.78539816339745,5.));
#1093=CARTESIAN_POINT('Ctrl Pts',(7.,1.04698045831966E-15,5.));
#1094=CARTESIAN_POINT('Origin',(7.,0.,0.));
#1095=CARTESIAN_POINT('',(14.,5.,0.));
#1096=CARTESIAN_POINT('Origin',(7.,0.,0.));
#1097=CARTESIAN_POINT('Origin',(7.,0.,0.));
#1098=CARTESIAN_POINT('Origin',(0.,-3.53553390593274,-3.53553390593274));
#1099=CARTESIAN_POINT('',(0.,-3.53553390593274,-3.53553390593274));
#1100=CARTESIAN_POINT('',(0.,-3.53553390593274,-3.53553390593274));
#1101=CARTESIAN_POINT('',(0.,-2.07106792362418,-4.99999988824129));
#1102=CARTESIAN_POINT('',(0.,-2.07106792362418,-4.99999988824129));
#1103=CARTESIAN_POINT('',(0.,-2.07106792362418,-4.99999988824129));
#1104=CARTESIAN_POINT('Origin',(10.5355339059327,0.,-3.53553390593274));
#1105=CARTESIAN_POINT('',(10.5355339059327,-15.5,-3.53553390593274));
#1106=CARTESIAN_POINT('',(10.5355339059327,0.,-3.53553390593274));
#1107=CARTESIAN_POINT('',(9.07106792362418,-15.5,-4.99999988824129));
#1108=CARTESIAN_POINT('',(9.07106792362418,-15.5,-4.99999988824129));
#1109=CARTESIAN_POINT('',(9.07106792362418,0.,-4.99999988824129));
#1110=CARTESIAN_POINT('Origin',(4.92893207637582,0.,-4.99999988824129));
#1111=CARTESIAN_POINT('',(3.46446609406726,15.5,-3.53553390593274));
#1112=CARTESIAN_POINT('',(3.46446609406726,0.,-3.53553390593274));
#1113=CARTESIAN_POINT('',(4.92893207637582,15.5,-4.99999988824129));
#1114=CARTESIAN_POINT('',(4.92893207637582,15.5,-4.99999988824129));
#1115=CARTESIAN_POINT('',(4.92893207637582,0.,-4.99999988824129));
#1116=CARTESIAN_POINT('Origin',(0.,0.,0.));
#1117=CARTESIAN_POINT('',(0.,3.53553390593274,-3.53553390593274));
#1118=CARTESIAN_POINT('',(0.,3.53553390593274,-3.53553390593274));
#1119=CARTESIAN_POINT('Origin',(0.,0.,0.));
#1120=CARTESIAN_POINT('Origin',(0.,0.,0.));
#1121=CARTESIAN_POINT('Origin',(0.,0.,0.));
#1122=CARTESIAN_POINT('Origin',(0.,0.,0.));
#1123=CARTESIAN_POINT('Origin',(0.,0.,0.));
#1124=CARTESIAN_POINT('Origin',(7.,0.,0.));
#1125=CARTESIAN_POINT('',(10.5355339059327,15.5,-3.53553390593274));
#1126=CARTESIAN_POINT('',(10.5355339059327,0.,-3.53553390593274));
#1127=CARTESIAN_POINT('Origin',(7.,15.5,0.));
#1128=CARTESIAN_POINT('Origin',(0.,0.,0.));
#1129=CARTESIAN_POINT('',(14.,3.53553390593274,-3.53553390593274));
#1130=CARTESIAN_POINT('Origin',(14.,0.,0.));
#1131=CARTESIAN_POINT('',(0.,3.53553390593274,-3.53553390593274));
#1132=CARTESIAN_POINT('Origin',(0.,0.,0.));
#1133=CARTESIAN_POINT('Origin',(14.,0.,0.));
#1134=CARTESIAN_POINT('Origin',(10.5355339059327,0.,-3.53553390593274));
#1135=CARTESIAN_POINT('',(9.07106792362418,15.5,-4.99999988824129));
#1136=CARTESIAN_POINT('',(9.07106792362418,0.,-4.99999988824129));
#1137=CARTESIAN_POINT('',(9.07106792362418,15.5,-4.99999988824129));
#1138=CARTESIAN_POINT('Origin',(7.,-15.5,0.));
#1139=CARTESIAN_POINT('',(5.,-15.5,2.44929359829471E-16));
#1140=CARTESIAN_POINT('Origin',(7.,-15.5,0.));
#1141=CARTESIAN_POINT('',(5.,-3.5,2.44929359829471E-16));
#1142=CARTESIAN_POINT('',(5.,-15.5,-2.44929359829471E-16));
#1143=CARTESIAN_POINT('Origin',(7.,-3.5,0.));
#1144=CARTESIAN_POINT('Origin',(7.,-3.5,0.));
#1145=CARTESIAN_POINT('Origin',(7.,15.5,0.));
#1146=CARTESIAN_POINT('',(5.,15.5,2.44929359829471E-16));
#1147=CARTESIAN_POINT('Origin',(7.,15.5,0.));
#1148=CARTESIAN_POINT('',(5.,3.5,2.44929359829471E-16));
#1149=CARTESIAN_POINT('',(5.,15.5,-2.44929359829471E-16));
#1150=CARTESIAN_POINT('Origin',(7.,3.5,0.));
#1151=CARTESIAN_POINT('Origin',(7.,3.5,0.));
#1152=CARTESIAN_POINT('Origin',(4.92893207637582,0.,-4.99999988824129));
#1153=CARTESIAN_POINT('',(4.92893207637582,-15.5,-4.99999988824129));
#1154=CARTESIAN_POINT('',(4.92893207637582,0.,-4.99999988824129));
#1155=CARTESIAN_POINT('',(3.46446609406726,-15.5,-3.53553390593274));
#1156=CARTESIAN_POINT('',(4.92893207637582,-15.5,-4.99999988824129));
#1157=CARTESIAN_POINT('',(3.46446609406726,0.,-3.53553390593274));
#1158=CARTESIAN_POINT('Origin',(7.,0.,0.));
#1159=CARTESIAN_POINT('Origin',(7.,-15.5,0.));
#1160=CARTESIAN_POINT('Origin',(7.,-15.5,0.));
#1161=CARTESIAN_POINT('',(7.,-15.5,-4.99999988824129));
#1162=CARTESIAN_POINT('',(7.00000015646219,-15.5,-4.99999988824129));
#1163=CARTESIAN_POINT('',(6.99999984353781,-15.5,-4.99999988824129));
#1164=CARTESIAN_POINT('Origin',(7.,15.5,0.));
#1165=CARTESIAN_POINT('',(7.,15.5,-4.99999988824129));
#1166=CARTESIAN_POINT('',(6.99999984353781,15.5,-4.99999988824129));
#1167=CARTESIAN_POINT('',(7.00000015646219,15.5,-4.99999988824129));
#1168=CARTESIAN_POINT('Origin',(0.,-3.53553390593274,-3.53553390593274));
#1169=CARTESIAN_POINT('',(14.,-2.07106792362418,-4.99999988824129));
#1170=CARTESIAN_POINT('',(0.,-2.07106792362418,-4.99999988824129));
#1171=CARTESIAN_POINT('',(14.,-3.53553390593274,-3.53553390593274));
#1172=CARTESIAN_POINT('',(14.,-2.07106792362418,-4.99999988824129));
#1173=CARTESIAN_POINT('',(0.,-3.53553390593274,-3.53553390593274));
#1174=CARTESIAN_POINT('Origin',(0.,0.,0.));
#1175=CARTESIAN_POINT('Origin',(14.,0.,0.));
#1176=CARTESIAN_POINT('Origin',(0.,2.07106792362418,-4.99999988824129));
#1177=CARTESIAN_POINT('',(0.,2.07106792362418,-4.99999988824129));
#1178=CARTESIAN_POINT('',(0.,2.07106792362418,-4.99999988824129));
#1179=CARTESIAN_POINT('',(0.,2.07106792362418,-4.99999988824129));
#1180=CARTESIAN_POINT('Origin',(0.,0.,0.));
#1181=CARTESIAN_POINT('',(14.,-2.05,-2.51052593825207E-16));
#1182=CARTESIAN_POINT('Origin',(14.,0.,0.));
#1183=CARTESIAN_POINT('',(0.,-2.05,-2.51052593825207E-16));
#1184=CARTESIAN_POINT('',(0.,-2.05,-2.51052593825207E-16));
#1185=CARTESIAN_POINT('Origin',(0.,0.,0.));
#1186=CARTESIAN_POINT('Origin',(6.99894284008852,0.,-4.99999988824129));
#1187=CARTESIAN_POINT('',(6.99894284008852,-0.00105715990885241,-4.99999988824129));
#1188=CARTESIAN_POINT('',(6.99894284008852,0.,-4.99999988824129));
#1189=CARTESIAN_POINT('',(0.,1.31292661475785E-12,-4.99999988824129));
#1190=CARTESIAN_POINT('',(0.,0.,-4.99999988824129));
#1191=CARTESIAN_POINT('',(0.,-0.00105715990885241,-4.99999988824129));
#1192=CARTESIAN_POINT('Origin',(0.,-2.07106792362418,-4.99999988824129));
#1193=CARTESIAN_POINT('',(14.,1.31292661475785E-12,-4.99999988824129));
#1194=CARTESIAN_POINT('',(0.,-0.00105715990885241,-4.99999988824129));
#1195=CARTESIAN_POINT('',(14.,0.,-4.99999988824129));
#1196=CARTESIAN_POINT('Origin',(6.99894284008852,0.,-4.99999988824129));
#1197=CARTESIAN_POINT('',(6.99894284008852,0.,-4.99999988824129));
#1198=CARTESIAN_POINT('',(0.,0.,-4.99999988824129));
#1199=CARTESIAN_POINT('Origin',(0.,0.00105715991147827,-4.99999988824129));
#1200=CARTESIAN_POINT('',(14.,2.07106792362418,-4.99999988824129));
#1201=CARTESIAN_POINT('',(0.,2.07106792362418,-4.99999988824129));
#1202=CARTESIAN_POINT('',(14.,0.,-4.99999988824129));
#1203=CARTESIAN_POINT('Origin',(0.,2.07106792362418,-4.99999988824129));
#1204=CARTESIAN_POINT('',(14.,2.07106792362418,-4.99999988824129));
#1205=CARTESIAN_POINT('Origin',(14.,0.,0.));
#1206=CARTESIAN_POINT('Origin',(0.,0.,0.));
#1207=UNCERTAINTY_MEASURE_WITH_UNIT(LENGTH_MEASURE(0.01),#1211,
'DISTANCE_ACCURACY_VALUE',
'Maximum model space distance between geometric entities at asserted c
onnectivities');
#1208=UNCERTAINTY_MEASURE_WITH_UNIT(LENGTH_MEASURE(0.01),#1211,
'DISTANCE_ACCURACY_VALUE',
'Maximum model space distance between geometric entities at asserted c
onnectivities');
#1209=(
GEOMETRIC_REPRESENTATION_CONTEXT(3)
GLOBAL_UNCERTAINTY_ASSIGNED_CONTEXT((#1207))
GLOBAL_UNIT_ASSIGNED_CONTEXT((#1211,#1213,#1214))
REPRESENTATION_CONTEXT('','3D')
);
#1210=(
GEOMETRIC_REPRESENTATION_CONTEXT(3)
GLOBAL_UNCERTAINTY_ASSIGNED_CONTEXT((#1208))
GLOBAL_UNIT_ASSIGNED_CONTEXT((#1211,#1213,#1214))
REPRESENTATION_CONTEXT('','3D')
);
#1211=(
LENGTH_UNIT()
NAMED_UNIT(*)
SI_UNIT(.MILLI.,.METRE.)
);
#1212=(
LENGTH_UNIT()
NAMED_UNIT(*)
SI_UNIT($,.METRE.)
);
#1213=(
NAMED_UNIT(*)
PLANE_ANGLE_UNIT()
SI_UNIT($,.RADIAN.)
);
#1214=(
NAMED_UNIT(*)
SI_UNIT($,.STERADIAN.)
SOLID_ANGLE_UNIT()
);
#1215=SHAPE_DEFINITION_REPRESENTATION(#1216,#1217);
#1216=PRODUCT_DEFINITION_SHAPE('',$,#1219);
#1217=SHAPE_REPRESENTATION('',(#603),#1209);
#1218=PRODUCT_DEFINITION_CONTEXT('part definition',#1223,'design');
#1219=PRODUCT_DEFINITION('2026-07-03-11-44-18-246','Prueba 1',#1220,#1218);
#1220=PRODUCT_DEFINITION_FORMATION('',$,#1225);
#1221=PRODUCT_RELATED_PRODUCT_CATEGORY('Prueba 1','Prueba 1',(#1225));
#1222=APPLICATION_PROTOCOL_DEFINITION('international standard',
'automotive_design',2009,#1223);
#1223=APPLICATION_CONTEXT(
'Core Data for Automotive Mechanical Design Process');
#1224=PRODUCT_CONTEXT('part definition',#1223,'mechanical');
#1225=PRODUCT('2026-07-03-11-44-18-246','Prueba 1',$,(#1224));
#1226=PRESENTATION_STYLE_ASSIGNMENT((#1227));
#1227=SURFACE_STYLE_USAGE(.BOTH.,#1228);
#1228=SURFACE_SIDE_STYLE('',(#1229));
#1229=SURFACE_STYLE_FILL_AREA(#1230);
#1230=FILL_AREA_STYLE('Acero - Satinado',(#1231));
#1231=FILL_AREA_STYLE_COLOUR('Acero - Satinado',#1232);
#1232=COLOUR_RGB('Acero - Satinado',0.627450980392157,0.627450980392157,
0.627450980392157);
ENDSEC;
END-ISO-10303-21;
