ISO-10303-21;
HEADER;
/* Generated by software containing ST-Developer
 * from STEP Tools, Inc. (www.steptools.com) 
 */

FILE_DESCRIPTION(
/* description */ (''),
/* implementation_level */ '2;1');

FILE_NAME(
/* name */ 'connecting rod.step',
/* time_stamp */ '2026-09-16T17:28:18+02:00',
/* author */ (''),
/* organization */ (''),
/* preprocessor_version */ 'ST-DEVELOPER v20.2',
/* originating_system */ 'Autodesk Translation Framework v15.15.0.0',
/* authorisation */ '');

FILE_SCHEMA (('AUTOMOTIVE_DESIGN { 1 0 10303 214 3 1 1 }'));
ENDSEC;

DATA;
#10=MECHANICAL_DESIGN_GEOMETRIC_PRESENTATION_REPRESENTATION('',(#13),#428);
#11=SHAPE_REPRESENTATION_RELATIONSHIP('SRR','None',#435,#12);
#12=ADVANCED_BREP_SHAPE_REPRESENTATION('',(#14),#427);
#13=STYLED_ITEM('',(#444),#14);
#14=MANIFOLD_SOLID_BREP('Cuerpo2',#205);
#15=SPHERICAL_SURFACE('',#235,4.50333199902176);
#16=B_SPLINE_SURFACE_WITH_KNOTS('',3,3,((#324,#325,#326,#327),(#328,#329,
#330,#331),(#332,#333,#334,#335),(#336,#337,#338,#339),(#340,#341,#342,
#343)),.UNSPECIFIED.,.F.,.F.,.F.,(4,1,4),(4,4),(0.,0.571428571428571,1.),
(0.,1.),.UNSPECIFIED.);
#17=B_SPLINE_SURFACE_WITH_KNOTS('',3,3,((#349,#350,#351,#352),(#353,#354,
#355,#356),(#357,#358,#359,#360),(#361,#362,#363,#364),(#365,#366,#367,
#368)),.UNSPECIFIED.,.F.,.F.,.F.,(4,1,4),(4,4),(0.,0.571428571428571,1.),
(0.,1.),.UNSPECIFIED.);
#18=B_SPLINE_SURFACE_WITH_KNOTS('',3,3,((#372,#373,#374,#375),(#376,#377,
#378,#379),(#380,#381,#382,#383),(#384,#385,#386,#387),(#388,#389,#390,
#391)),.UNSPECIFIED.,.F.,.F.,.F.,(4,1,4),(4,4),(0.,0.571428571428571,1.),
(0.,1.),.UNSPECIFIED.);
#19=B_SPLINE_SURFACE_WITH_KNOTS('',3,3,((#397,#398,#399,#400),(#401,#402,
#403,#404),(#405,#406,#407,#408),(#409,#410,#411,#412),(#413,#414,#415,
#416)),.UNSPECIFIED.,.F.,.F.,.F.,(4,1,4),(4,4),(0.,0.571428571428571,1.),
(0.,1.),.UNSPECIFIED.);
#20=FACE_BOUND('',#46,.T.);
#21=FACE_BOUND('',#52,.T.);
#22=FACE_BOUND('',#55,.T.);
#23=PLANE('',#224);
#24=PLANE('',#228);
#25=PLANE('',#233);
#26=PLANE('',#237);
#27=CYLINDRICAL_SURFACE('',#222,1.6);
#28=CYLINDRICAL_SURFACE('',#225,1.1);
#29=FACE_OUTER_BOUND('',#41,.T.);
#30=FACE_OUTER_BOUND('',#42,.T.);
#31=FACE_OUTER_BOUND('',#43,.T.);
#32=FACE_OUTER_BOUND('',#44,.T.);
#33=FACE_OUTER_BOUND('',#45,.T.);
#34=FACE_OUTER_BOUND('',#47,.T.);
#35=FACE_OUTER_BOUND('',#48,.T.);
#36=FACE_OUTER_BOUND('',#49,.T.);
#37=FACE_OUTER_BOUND('',#50,.T.);
#38=FACE_OUTER_BOUND('',#51,.T.);
#39=FACE_OUTER_BOUND('',#53,.T.);
#40=FACE_OUTER_BOUND('',#54,.T.);
#41=EDGE_LOOP('',(#140,#141,#142,#143));
#42=EDGE_LOOP('',(#144,#145,#146,#147));
#43=EDGE_LOOP('',(#148));
#44=EDGE_LOOP('',(#149,#150,#151,#152));
#45=EDGE_LOOP('',(#153,#154,#155,#156,#157,#158));
#46=EDGE_LOOP('',(#159));
#47=EDGE_LOOP('',(#160,#161,#162,#163));
#48=EDGE_LOOP('',(#164,#165,#166,#167));
#49=EDGE_LOOP('',(#168,#169,#170,#171));
#50=EDGE_LOOP('',(#172,#173,#174,#175));
#51=EDGE_LOOP('',(#176,#177,#178,#179));
#52=EDGE_LOOP('',(#180));
#53=EDGE_LOOP('',(#181,#182,#183,#184,#185,#186));
#54=EDGE_LOOP('',(#187,#188,#189,#190));
#55=EDGE_LOOP('',(#191));
#56=LINE('',#298,#71);
#57=LINE('',#302,#72);
#58=LINE('',#309,#73);
#59=LINE('',#314,#74);
#60=LINE('',#316,#75);
#61=LINE('',#318,#76);
#62=LINE('',#320,#77);
#63=LINE('',#322,#78);
#64=LINE('',#323,#79);
#65=LINE('',#345,#80);
#66=LINE('',#348,#81);
#67=LINE('',#370,#82);
#68=LINE('',#393,#83);
#69=LINE('',#396,#84);
#70=LINE('',#418,#85);
#71=VECTOR('',#244,1.1);
#72=VECTOR('',#249,1.6);
#73=VECTOR('',#258,1.1);
#74=VECTOR('',#263,10.);
#75=VECTOR('',#264,10.);
#76=VECTOR('',#265,10.);
#77=VECTOR('',#266,10.);
#78=VECTOR('',#267,10.);
#79=VECTOR('',#268,10.);
#80=VECTOR('',#269,16.9);
#81=VECTOR('',#272,16.9);
#82=VECTOR('',#273,10.);
#83=VECTOR('',#276,16.9);
#84=VECTOR('',#279,16.9);
#85=VECTOR('',#280,16.9);
#86=CIRCLE('',#220,0.6);
#87=CIRCLE('',#221,1.6);
#88=CIRCLE('',#223,1.6);
#89=CIRCLE('',#226,1.1);
#90=CIRCLE('',#227,1.1);
#91=CIRCLE('',#229,4.50333199902176);
#92=CIRCLE('',#230,4.50333199902176);
#93=CIRCLE('',#231,4.50333199902176);
#94=CIRCLE('',#232,4.50333199902176);
#95=CIRCLE('',#234,2.25166599951088);
#96=CIRCLE('',#236,2.25166599951088);
#97=VERTEX_POINT('',#295);
#98=VERTEX_POINT('',#297);
#99=VERTEX_POINT('',#301);
#100=VERTEX_POINT('',#306);
#101=VERTEX_POINT('',#308);
#102=VERTEX_POINT('',#312);
#103=VERTEX_POINT('',#313);
#104=VERTEX_POINT('',#315);
#105=VERTEX_POINT('',#317);
#106=VERTEX_POINT('',#319);
#107=VERTEX_POINT('',#321);
#108=VERTEX_POINT('',#344);
#109=VERTEX_POINT('',#346);
#110=VERTEX_POINT('',#369);
#111=VERTEX_POINT('',#392);
#112=VERTEX_POINT('',#394);
#113=VERTEX_POINT('',#417);
#114=EDGE_CURVE('',#97,#97,#86,.T.);
#115=EDGE_CURVE('',#97,#98,#56,.T.);
#116=EDGE_CURVE('',#98,#98,#87,.T.);
#117=EDGE_CURVE('',#98,#99,#57,.T.);
#118=EDGE_CURVE('',#99,#99,#88,.T.);
#119=EDGE_CURVE('',#100,#100,#89,.T.);
#120=EDGE_CURVE('',#100,#101,#58,.T.);
#121=EDGE_CURVE('',#101,#101,#90,.T.);
#122=EDGE_CURVE('',#102,#103,#59,.T.);
#123=EDGE_CURVE('',#104,#102,#60,.T.);
#124=EDGE_CURVE('',#105,#104,#61,.T.);
#125=EDGE_CURVE('',#106,#105,#62,.T.);
#126=EDGE_CURVE('',#107,#106,#63,.T.);
#127=EDGE_CURVE('',#103,#107,#64,.T.);
#128=EDGE_CURVE('',#107,#108,#65,.T.);
#129=EDGE_CURVE('',#109,#108,#91,.T.);
#130=EDGE_CURVE('',#103,#109,#66,.T.);
#131=EDGE_CURVE('',#106,#110,#67,.T.);
#132=EDGE_CURVE('',#108,#110,#92,.T.);
#133=EDGE_CURVE('',#104,#111,#68,.T.);
#134=EDGE_CURVE('',#111,#112,#93,.T.);
#135=EDGE_CURVE('',#105,#112,#69,.T.);
#136=EDGE_CURVE('',#102,#113,#70,.T.);
#137=EDGE_CURVE('',#113,#111,#94,.T.);
#138=EDGE_CURVE('',#110,#112,#95,.T.);
#139=EDGE_CURVE('',#109,#113,#96,.T.);
#140=ORIENTED_EDGE('',*,*,#114,.T.);
#141=ORIENTED_EDGE('',*,*,#115,.T.);
#142=ORIENTED_EDGE('',*,*,#116,.T.);
#143=ORIENTED_EDGE('',*,*,#115,.F.);
#144=ORIENTED_EDGE('',*,*,#116,.F.);
#145=ORIENTED_EDGE('',*,*,#117,.T.);
#146=ORIENTED_EDGE('',*,*,#118,.F.);
#147=ORIENTED_EDGE('',*,*,#117,.F.);
#148=ORIENTED_EDGE('',*,*,#114,.F.);
#149=ORIENTED_EDGE('',*,*,#119,.F.);
#150=ORIENTED_EDGE('',*,*,#120,.T.);
#151=ORIENTED_EDGE('',*,*,#121,.F.);
#152=ORIENTED_EDGE('',*,*,#120,.F.);
#153=ORIENTED_EDGE('',*,*,#122,.F.);
#154=ORIENTED_EDGE('',*,*,#123,.F.);
#155=ORIENTED_EDGE('',*,*,#124,.F.);
#156=ORIENTED_EDGE('',*,*,#125,.F.);
#157=ORIENTED_EDGE('',*,*,#126,.F.);
#158=ORIENTED_EDGE('',*,*,#127,.F.);
#159=ORIENTED_EDGE('',*,*,#118,.T.);
#160=ORIENTED_EDGE('',*,*,#127,.T.);
#161=ORIENTED_EDGE('',*,*,#128,.T.);
#162=ORIENTED_EDGE('',*,*,#129,.F.);
#163=ORIENTED_EDGE('',*,*,#130,.F.);
#164=ORIENTED_EDGE('',*,*,#126,.T.);
#165=ORIENTED_EDGE('',*,*,#131,.T.);
#166=ORIENTED_EDGE('',*,*,#132,.F.);
#167=ORIENTED_EDGE('',*,*,#128,.F.);
#168=ORIENTED_EDGE('',*,*,#124,.T.);
#169=ORIENTED_EDGE('',*,*,#133,.T.);
#170=ORIENTED_EDGE('',*,*,#134,.T.);
#171=ORIENTED_EDGE('',*,*,#135,.F.);
#172=ORIENTED_EDGE('',*,*,#123,.T.);
#173=ORIENTED_EDGE('',*,*,#136,.T.);
#174=ORIENTED_EDGE('',*,*,#137,.T.);
#175=ORIENTED_EDGE('',*,*,#133,.F.);
#176=ORIENTED_EDGE('',*,*,#138,.F.);
#177=ORIENTED_EDGE('',*,*,#131,.F.);
#178=ORIENTED_EDGE('',*,*,#125,.T.);
#179=ORIENTED_EDGE('',*,*,#135,.T.);
#180=ORIENTED_EDGE('',*,*,#121,.T.);
#181=ORIENTED_EDGE('',*,*,#129,.T.);
#182=ORIENTED_EDGE('',*,*,#132,.T.);
#183=ORIENTED_EDGE('',*,*,#138,.T.);
#184=ORIENTED_EDGE('',*,*,#134,.F.);
#185=ORIENTED_EDGE('',*,*,#137,.F.);
#186=ORIENTED_EDGE('',*,*,#139,.F.);
#187=ORIENTED_EDGE('',*,*,#139,.T.);
#188=ORIENTED_EDGE('',*,*,#136,.F.);
#189=ORIENTED_EDGE('',*,*,#122,.T.);
#190=ORIENTED_EDGE('',*,*,#130,.T.);
#191=ORIENTED_EDGE('',*,*,#119,.T.);
#192=CONICAL_SURFACE('',#219,1.1,0.785398163397448);
#193=ADVANCED_FACE('',(#29),#192,.T.);
#194=ADVANCED_FACE('',(#30),#27,.T.);
#195=ADVANCED_FACE('',(#31),#23,.F.);
#196=ADVANCED_FACE('',(#32),#28,.F.);
#197=ADVANCED_FACE('',(#33,#20),#24,.F.);
#198=ADVANCED_FACE('',(#34),#16,.T.);
#199=ADVANCED_FACE('',(#35),#17,.T.);
#200=ADVANCED_FACE('',(#36),#18,.T.);
#201=ADVANCED_FACE('',(#37),#19,.T.);
#202=ADVANCED_FACE('',(#38,#21),#25,.T.);
#203=ADVANCED_FACE('',(#39),#15,.T.);
#204=ADVANCED_FACE('',(#40,#22),#26,.T.);
#205=CLOSED_SHELL('',(#193,#194,#195,#196,#197,#198,#199,#200,#201,#202,
#203,#204));
#206=DERIVED_UNIT_ELEMENT(#208,1.);
#207=DERIVED_UNIT_ELEMENT(#430,-3.);
#208=(
MASS_UNIT()
NAMED_UNIT(*)
SI_UNIT(.KILO.,.GRAM.)
);
#209=DERIVED_UNIT((#206,#207));
#210=MEASURE_REPRESENTATION_ITEM('density measure',
POSITIVE_RATIO_MEASURE(7850.),#209);
#211=PROPERTY_DEFINITION_REPRESENTATION(#216,#213);
#212=PROPERTY_DEFINITION_REPRESENTATION(#217,#214);
#213=REPRESENTATION('material name',(#215),#427);
#214=REPRESENTATION('density',(#210),#427);
#215=DESCRIPTIVE_REPRESENTATION_ITEM('Acero','Acero');
#216=PROPERTY_DEFINITION('material property','material name',#437);
#217=PROPERTY_DEFINITION('material property','density of part',#437);
#218=AXIS2_PLACEMENT_3D('',#293,#238,#239);
#219=AXIS2_PLACEMENT_3D('',#294,#240,#241);
#220=AXIS2_PLACEMENT_3D('',#296,#242,#243);
#221=AXIS2_PLACEMENT_3D('',#299,#245,#246);
#222=AXIS2_PLACEMENT_3D('',#300,#247,#248);
#223=AXIS2_PLACEMENT_3D('',#303,#250,#251);
#224=AXIS2_PLACEMENT_3D('',#304,#252,#253);
#225=AXIS2_PLACEMENT_3D('',#305,#254,#255);
#226=AXIS2_PLACEMENT_3D('',#307,#256,#257);
#227=AXIS2_PLACEMENT_3D('',#310,#259,#260);
#228=AXIS2_PLACEMENT_3D('',#311,#261,#262);
#229=AXIS2_PLACEMENT_3D('',#347,#270,#271);
#230=AXIS2_PLACEMENT_3D('',#371,#274,#275);
#231=AXIS2_PLACEMENT_3D('',#395,#277,#278);
#232=AXIS2_PLACEMENT_3D('',#419,#281,#282);
#233=AXIS2_PLACEMENT_3D('',#420,#283,#284);
#234=AXIS2_PLACEMENT_3D('',#421,#285,#286);
#235=AXIS2_PLACEMENT_3D('',#422,#287,#288);
#236=AXIS2_PLACEMENT_3D('',#423,#289,#290);
#237=AXIS2_PLACEMENT_3D('',#424,#291,#292);
#238=DIRECTION('axis',(0.,0.,1.));
#239=DIRECTION('refdir',(1.,0.,0.));
#240=DIRECTION('center_axis',(0.,1.,0.));
#241=DIRECTION('ref_axis',(1.,0.,0.));
#242=DIRECTION('center_axis',(0.,1.,0.));
#243=DIRECTION('ref_axis',(1.,0.,0.));
#244=DIRECTION('',(-0.707106781186547,0.707106781186548,-8.65956056235493E-17));
#245=DIRECTION('center_axis',(0.,-1.,0.));
#246=DIRECTION('ref_axis',(1.,0.,0.));
#247=DIRECTION('center_axis',(0.,-1.,0.));
#248=DIRECTION('ref_axis',(1.,0.,0.));
#249=DIRECTION('',(0.,1.,0.));
#250=DIRECTION('center_axis',(5.62901988776133E-31,1.,-2.25646055845605E-31));
#251=DIRECTION('ref_axis',(1.,0.,0.));
#252=DIRECTION('center_axis',(0.,1.,0.));
#253=DIRECTION('ref_axis',(1.,0.,0.));
#254=DIRECTION('center_axis',(0.,0.,-1.));
#255=DIRECTION('ref_axis',(-1.,0.,0.));
#256=DIRECTION('center_axis',(4.93432448036242E-16,0.,-1.));
#257=DIRECTION('ref_axis',(-1.,0.,0.));
#258=DIRECTION('',(0.,0.,-1.));
#259=DIRECTION('center_axis',(-4.93432448036242E-16,0.,1.));
#260=DIRECTION('ref_axis',(-1.,0.,0.));
#261=DIRECTION('center_axis',(5.62901988776133E-31,1.,-2.25646055845605E-31));
#262=DIRECTION('ref_axis',(0.,2.25646055845605E-31,1.));
#263=DIRECTION('',(1.,0.,4.93067366503879E-16));
#264=DIRECTION('',(0.499999999999999,0.,0.866025403784439));
#265=DIRECTION('',(-0.500000000000001,0.,0.866025403784438));
#266=DIRECTION('',(-1.,0.,-6.16334208129849E-16));
#267=DIRECTION('',(-0.499999999999999,0.,-0.866025403784439));
#268=DIRECTION('',(0.5,0.,-0.866025403784439));
#269=DIRECTION('',(0.,1.,6.56936700961631E-17));
#270=DIRECTION('center_axis',(0.,1.,0.));
#271=DIRECTION('ref_axis',(0.5,0.,0.866025403784439));
#272=DIRECTION('',(0.,1.,0.));
#273=DIRECTION('',(0.,1.,0.));
#274=DIRECTION('center_axis',(0.,1.,0.));
#275=DIRECTION('ref_axis',(0.5,0.,0.866025403784439));
#276=DIRECTION('',(3.28468350480816E-17,1.,-6.56936700961631E-17));
#277=DIRECTION('center_axis',(-1.22464679914735E-16,-1.,-5.21333403686422E-32));
#278=DIRECTION('ref_axis',(-0.500000000000001,6.12323399573677E-17,0.866025403784438));
#279=DIRECTION('',(4.92702525721223E-17,1.,3.28468350480816E-17));
#280=DIRECTION('',(4.92702525721223E-17,1.,-6.56936700961631E-17));
#281=DIRECTION('center_axis',(-1.22464679914735E-16,-1.,-5.21333403686422E-32));
#282=DIRECTION('ref_axis',(-0.500000000000001,6.12323399573677E-17,0.866025403784438));
#283=DIRECTION('center_axis',(4.93432448036242E-16,0.,-1.));
#284=DIRECTION('ref_axis',(-1.,0.,-4.93432448036242E-16));
#285=DIRECTION('center_axis',(-7.39601049755819E-16,-2.43115427911071E-31,
1.));
#286=DIRECTION('ref_axis',(1.,7.39601049755819E-16,7.39601049755819E-16));
#287=DIRECTION('center_axis',(6.12323399573677E-17,0.,1.));
#288=DIRECTION('ref_axis',(1.,0.,0.));
#289=DIRECTION('center_axis',(-6.16334208129849E-16,1.2326684162597E-16,
1.));
#290=DIRECTION('ref_axis',(1.,2.4653368325194E-16,4.93067366503879E-16));
#291=DIRECTION('center_axis',(-4.93432448036242E-16,0.,1.));
#292=DIRECTION('ref_axis',(1.,0.,4.93432448036242E-16));
#293=CARTESIAN_POINT('',(0.,0.,0.));
#294=CARTESIAN_POINT('Origin',(0.,-35.4,0.));
#295=CARTESIAN_POINT('',(-0.6,-35.9,7.34788079488412E-17));
#296=CARTESIAN_POINT('Origin',(0.,-35.9,0.));
#297=CARTESIAN_POINT('',(-1.6,-34.9,-1.95943487863577E-16));
#298=CARTESIAN_POINT('',(-1.1,-35.4,-1.34711147906209E-16));
#299=CARTESIAN_POINT('Origin',(0.,-34.9,0.));
#300=CARTESIAN_POINT('Origin',(0.,-16.9,0.));
#301=CARTESIAN_POINT('',(-1.6,-16.9,1.95943487863577E-16));
#302=CARTESIAN_POINT('',(-1.6,-16.9,-1.95943487863577E-16));
#303=CARTESIAN_POINT('Origin',(0.,-16.9,0.));
#304=CARTESIAN_POINT('Origin',(0.,-35.9,0.));
#305=CARTESIAN_POINT('Origin',(0.,0.,3.89999991282821));
#306=CARTESIAN_POINT('',(1.1,1.34711147906209E-16,3.89999991282821));
#307=CARTESIAN_POINT('Origin',(0.,0.,3.89999991282821));
#308=CARTESIAN_POINT('',(1.1,1.34711147906209E-16,-3.89999991282821));
#309=CARTESIAN_POINT('',(1.1,-1.34711147906209E-16,3.89999991282821));
#310=CARTESIAN_POINT('Origin',(0.,0.,-3.89999991282821));
#311=CARTESIAN_POINT('Origin',(6.93889390390723E-17,-16.9,-3.46944695195361E-16));
#312=CARTESIAN_POINT('',(-2.25166599951089,-16.9,3.89999991282821));
#313=CARTESIAN_POINT('',(2.25166599951088,-16.9,3.89999991282821));
#314=CARTESIAN_POINT('',(-2.25166599951089,-16.9,3.89999991282821));
#315=CARTESIAN_POINT('',(-4.50333199902176,-16.9,-3.60822483003176E-15));
#316=CARTESIAN_POINT('',(-4.50333199902176,-16.9,-3.60822483003176E-15));
#317=CARTESIAN_POINT('',(-2.25166599951088,-16.9,-3.89999991282821));
#318=CARTESIAN_POINT('',(-2.25166599951088,-16.9,-3.89999991282821));
#319=CARTESIAN_POINT('',(2.25166599951088,-16.9,-3.89999991282821));
#320=CARTESIAN_POINT('',(2.25166599951088,-16.9,-3.89999991282821));
#321=CARTESIAN_POINT('',(4.50333199902176,-16.9,1.94289029309402E-15));
#322=CARTESIAN_POINT('',(4.50333199902176,-16.9,1.94289029309402E-15));
#323=CARTESIAN_POINT('',(2.25166599951088,-16.9,3.89999991282821));
#324=CARTESIAN_POINT('Ctrl Pts',(2.25166599951088,-16.9,3.89999991282821));
#325=CARTESIAN_POINT('Ctrl Pts',(2.25166599951088,-11.2666666666667,3.89999991282821));
#326=CARTESIAN_POINT('Ctrl Pts',(2.25166599951088,-5.63333333333333,3.89999991282821));
#327=CARTESIAN_POINT('Ctrl Pts',(2.25166599951088,0.,3.89999991282821));
#328=CARTESIAN_POINT('Ctrl Pts',(2.68055476132248,-16.9,3.15714278657522));
#329=CARTESIAN_POINT('Ctrl Pts',(2.79761137971264,-11.2666666666667,3.25577555525826));
#330=CARTESIAN_POINT('Ctrl Pts',(2.9125275446218,-5.63333333333334,3.35223588304032));
#331=CARTESIAN_POINT('Ctrl Pts',(3.02958416301196,0.,3.45086865172336));
#332=CARTESIAN_POINT('Ctrl Pts',(3.43111009449277,-16.9,1.85714281563248));
#333=CARTESIAN_POINT('Ctrl Pts',(3.66898256120543,-11.2666666666667,1.98668591953165));
#334=CARTESIAN_POINT('Ctrl Pts',(3.90772589504691,-5.63333333333333,2.11691466242067));
#335=CARTESIAN_POINT('Ctrl Pts',(4.14559836175957,0.,2.24645776631984));
#336=CARTESIAN_POINT('Ctrl Pts',(4.18166542766307,-16.9,0.557142844689746));
#337=CARTESIAN_POINT('Ctrl Pts',(4.28905815733539,-11.2666666666667,0.59588348578955));
#338=CARTESIAN_POINT('Ctrl Pts',(4.39593926934945,-5.63333333333334,0.634956250557467));
#339=CARTESIAN_POINT('Ctrl Pts',(4.50333199902176,0.,0.67369689165727));
#340=CARTESIAN_POINT('Ctrl Pts',(4.50333199902176,-16.9,2.22044604925031E-15));
#341=CARTESIAN_POINT('Ctrl Pts',(4.50333199902176,-11.2666666666667,2.4980018054066E-15));
#342=CARTESIAN_POINT('Ctrl Pts',(4.50333199902176,-5.63333333333333,2.77555756156289E-15));
#343=CARTESIAN_POINT('Ctrl Pts',(4.50333199902176,0.,3.05311331771918E-15));
#344=CARTESIAN_POINT('',(4.50333199902176,0.,3.05311331771918E-15));
#345=CARTESIAN_POINT('',(4.50333199902176,-16.9,1.94289029309402E-15));
#346=CARTESIAN_POINT('',(2.25166599951088,0.,3.89999991282821));
#347=CARTESIAN_POINT('Origin',(0.,0.,0.));
#348=CARTESIAN_POINT('',(2.25166599951088,-16.9,3.89999991282821));
#349=CARTESIAN_POINT('Ctrl Pts',(4.50333199902176,-16.9,1.94289029309402E-15));
#350=CARTESIAN_POINT('Ctrl Pts',(4.50333199902176,-11.2666666666667,2.31296463463574E-15));
#351=CARTESIAN_POINT('Ctrl Pts',(4.50333199902176,-5.63333333333333,2.68303897617746E-15));
#352=CARTESIAN_POINT('Ctrl Pts',(4.50333199902176,0.,3.05311331771918E-15));
#353=CARTESIAN_POINT('Ctrl Pts',(4.07444323721017,-16.9,-0.74285712625299));
#354=CARTESIAN_POINT('Ctrl Pts',(4.21839002973036,-11.2666666666667,-0.794914747118445));
#355=CARTESIAN_POINT('Ctrl Pts',(4.35938520650157,-5.63333333333334,-0.846204901344231));
#356=CARTESIAN_POINT('Ctrl Pts',(4.50333199902177,0.,-0.898262522209687));
#357=CARTESIAN_POINT('Ctrl Pts',(3.32388790403987,-16.9,-2.04285709719573));
#358=CARTESIAN_POINT('Ctrl Pts',(3.55501175625797,-11.2666666666667,-2.18408914428017));
#359=CARTESIAN_POINT('Ctrl Pts',(3.78716482282352,-5.63333333333333,-2.32573256492657));
#360=CARTESIAN_POINT('Ctrl Pts',(4.01828867504162,0.,-2.46696461201102));
#361=CARTESIAN_POINT('Ctrl Pts',(2.57333257086958,-16.9,-3.34285706813846));
#362=CARTESIAN_POINT('Ctrl Pts',(2.66057931505707,-11.2666666666667,-3.41649157966654));
#363=CARTESIAN_POINT('Ctrl Pts',(2.74785787794921,-5.63333333333334,-3.48951695547149));
#364=CARTESIAN_POINT('Ctrl Pts',(2.83510462213669,0.,-3.56315146699957));
#365=CARTESIAN_POINT('Ctrl Pts',(2.25166599951088,-16.9,-3.89999991282821));
#366=CARTESIAN_POINT('Ctrl Pts',(2.25166599951088,-11.2666666666667,-3.89999991282821));
#367=CARTESIAN_POINT('Ctrl Pts',(2.25166599951088,-5.63333333333333,-3.89999991282821));
#368=CARTESIAN_POINT('Ctrl Pts',(2.25166599951088,0.,-3.89999991282821));
#369=CARTESIAN_POINT('',(2.25166599951088,0.,-3.89999991282821));
#370=CARTESIAN_POINT('',(2.25166599951088,-16.9,-3.89999991282821));
#371=CARTESIAN_POINT('Origin',(0.,0.,0.));
#372=CARTESIAN_POINT('Ctrl Pts',(-2.25166599951088,-16.9,-3.89999991282821));
#373=CARTESIAN_POINT('Ctrl Pts',(-2.25166599951088,-11.2666666666667,-3.89999991282821));
#374=CARTESIAN_POINT('Ctrl Pts',(-2.25166599951088,-5.63333333333333,-3.89999991282821));
#375=CARTESIAN_POINT('Ctrl Pts',(-2.25166599951088,2.75749555904993E-16,
-3.89999991282821));
#376=CARTESIAN_POINT('Ctrl Pts',(-2.68055476132248,-16.9,-3.15714278657522));
#377=CARTESIAN_POINT('Ctrl Pts',(-2.79761137971264,-11.2666666666667,-3.25577555525826));
#378=CARTESIAN_POINT('Ctrl Pts',(-2.91252754462179,-5.63333333333334,-3.35223588304032));
#379=CARTESIAN_POINT('Ctrl Pts',(-3.02958416301195,3.7101705479801E-16,
-3.45086865172336));
#380=CARTESIAN_POINT('Ctrl Pts',(-3.43111009449277,-16.9,-1.85714281563248));
#381=CARTESIAN_POINT('Ctrl Pts',(-3.66898256120543,-11.2666666666667,-1.98668591953166));
#382=CARTESIAN_POINT('Ctrl Pts',(-3.90772589504691,-5.63333333333333,-2.11691466242067));
#383=CARTESIAN_POINT('Ctrl Pts',(-4.14559836175957,5.07689376427937E-16,
-2.24645776631985));
#384=CARTESIAN_POINT('Ctrl Pts',(-4.18166542766307,-16.9,-0.557142844689748));
#385=CARTESIAN_POINT('Ctrl Pts',(-4.28905815733539,-11.2666666666667,-0.595883485789551));
#386=CARTESIAN_POINT('Ctrl Pts',(-4.39593926934944,-5.63333333333334,-0.634956250557467));
#387=CARTESIAN_POINT('Ctrl Pts',(-4.50333199902176,5.51499111809986E-16,
-0.67369689165727));
#388=CARTESIAN_POINT('Ctrl Pts',(-4.50333199902176,-16.9,-4.44089209850063E-15));
#389=CARTESIAN_POINT('Ctrl Pts',(-4.50333199902176,-11.2666666666667,-3.70074341541719E-15));
#390=CARTESIAN_POINT('Ctrl Pts',(-4.50333199902176,-5.63333333333333,-2.96059473233375E-15));
#391=CARTESIAN_POINT('Ctrl Pts',(-4.50333199902176,5.51499111809986E-16,
-2.22044604925031E-15));
#392=CARTESIAN_POINT('',(-4.50333199902176,5.51499111809986E-16,-4.71844785465692E-15));
#393=CARTESIAN_POINT('',(-4.50333199902176,-16.9,-3.60822483003176E-15));
#394=CARTESIAN_POINT('',(-2.25166599951088,2.75749555904993E-16,-3.89999991282821));
#395=CARTESIAN_POINT('Origin',(5.55111512312578E-16,-1.07852076885685E-31,
0.));
#396=CARTESIAN_POINT('',(-2.25166599951088,-16.9,-3.89999991282821));
#397=CARTESIAN_POINT('Ctrl Pts',(-4.50333199902176,-16.9,-3.60822483003176E-15));
#398=CARTESIAN_POINT('Ctrl Pts',(-4.50333199902176,-11.2666666666667,-3.97829917157348E-15));
#399=CARTESIAN_POINT('Ctrl Pts',(-4.50333199902176,-5.63333333333333,-4.3483735131152E-15));
#400=CARTESIAN_POINT('Ctrl Pts',(-4.50333199902176,5.51499111809986E-16,
-4.71844785465692E-15));
#401=CARTESIAN_POINT('Ctrl Pts',(-4.07444323721017,-16.9,0.742857126252989));
#402=CARTESIAN_POINT('Ctrl Pts',(-4.21839002973036,-11.2666666666667,0.794914747118444));
#403=CARTESIAN_POINT('Ctrl Pts',(-4.35938520650157,-5.63333333333334,0.84620490134423));
#404=CARTESIAN_POINT('Ctrl Pts',(-4.50333199902177,5.51499111809986E-16,
0.898262522209685));
#405=CARTESIAN_POINT('Ctrl Pts',(-3.32388790403987,-16.9,2.04285709719572));
#406=CARTESIAN_POINT('Ctrl Pts',(-3.55501175625797,-11.2666666666667,2.18408914428017));
#407=CARTESIAN_POINT('Ctrl Pts',(-3.78716482282352,-5.63333333333333,2.32573256492657));
#408=CARTESIAN_POINT('Ctrl Pts',(-4.01828867504162,4.92098436393978E-16,
2.46696461201102));
#409=CARTESIAN_POINT('Ctrl Pts',(-2.57333257086958,-16.9,3.34285706813846));
#410=CARTESIAN_POINT('Ctrl Pts',(-2.66057931505707,-11.2666666666667,3.41649157966654));
#411=CARTESIAN_POINT('Ctrl Pts',(-2.74785787794921,-5.63333333333334,3.48951695547149));
#412=CARTESIAN_POINT('Ctrl Pts',(-2.83510462213669,3.47200180074756E-16,
3.56315146699957));
#413=CARTESIAN_POINT('Ctrl Pts',(-2.25166599951089,-16.9,3.89999991282821));
#414=CARTESIAN_POINT('Ctrl Pts',(-2.25166599951089,-11.2666666666667,3.89999991282821));
#415=CARTESIAN_POINT('Ctrl Pts',(-2.25166599951089,-5.63333333333333,3.89999991282821));
#416=CARTESIAN_POINT('Ctrl Pts',(-2.25166599951089,2.75749555904993E-16,
3.8999999128282));
#417=CARTESIAN_POINT('',(-2.25166599951089,2.75749555904993E-16,3.8999999128282));
#418=CARTESIAN_POINT('',(-2.25166599951089,-16.9,3.89999991282821));
#419=CARTESIAN_POINT('Origin',(5.55111512312578E-16,-1.07852076885685E-31,
0.));
#420=CARTESIAN_POINT('Origin',(2.25166599951088,0.,-3.89999991282821));
#421=CARTESIAN_POINT('Origin',(2.16663848564076E-15,-1.66533453693773E-15,
-3.89999991282821));
#422=CARTESIAN_POINT('Origin',(0.,0.,0.));
#423=CARTESIAN_POINT('Origin',(-1.99740581065914E-15,-5.55111512312578E-16,
3.89999991282821));
#424=CARTESIAN_POINT('Origin',(-1.92438650432795E-15,0.,3.89999991282821));
#425=UNCERTAINTY_MEASURE_WITH_UNIT(LENGTH_MEASURE(0.01),#429,
'DISTANCE_ACCURACY_VALUE',
'Maximum model space distance between geometric entities at asserted c
onnectivities');
#426=UNCERTAINTY_MEASURE_WITH_UNIT(LENGTH_MEASURE(0.01),#429,
'DISTANCE_ACCURACY_VALUE',
'Maximum model space distance between geometric entities at asserted c
onnectivities');
#427=(
GEOMETRIC_REPRESENTATION_CONTEXT(3)
GLOBAL_UNCERTAINTY_ASSIGNED_CONTEXT((#425))
GLOBAL_UNIT_ASSIGNED_CONTEXT((#429,#431,#432))
REPRESENTATION_CONTEXT('','3D')
);
#428=(
GEOMETRIC_REPRESENTATION_CONTEXT(3)
GLOBAL_UNCERTAINTY_ASSIGNED_CONTEXT((#426))
GLOBAL_UNIT_ASSIGNED_CONTEXT((#429,#431,#432))
REPRESENTATION_CONTEXT('','3D')
);
#429=(
LENGTH_UNIT()
NAMED_UNIT(*)
SI_UNIT(.MILLI.,.METRE.)
);
#430=(
LENGTH_UNIT()
NAMED_UNIT(*)
SI_UNIT($,.METRE.)
);
#431=(
NAMED_UNIT(*)
PLANE_ANGLE_UNIT()
SI_UNIT($,.RADIAN.)
);
#432=(
NAMED_UNIT(*)
SI_UNIT($,.STERADIAN.)
SOLID_ANGLE_UNIT()
);
#433=SHAPE_DEFINITION_REPRESENTATION(#434,#435);
#434=PRODUCT_DEFINITION_SHAPE('',$,#437);
#435=SHAPE_REPRESENTATION('',(#218),#427);
#436=PRODUCT_DEFINITION_CONTEXT('part definition',#441,'design');
#437=PRODUCT_DEFINITION('2026-07-13-10-58-06-957','Conector biela',#438,
#436);
#438=PRODUCT_DEFINITION_FORMATION('',$,#443);
#439=PRODUCT_RELATED_PRODUCT_CATEGORY('Conector biela','Conector biela',
(#443));
#440=APPLICATION_PROTOCOL_DEFINITION('international standard',
'automotive_design',2009,#441);
#441=APPLICATION_CONTEXT(
'Core Data for Automotive Mechanical Design Process');
#442=PRODUCT_CONTEXT('part definition',#441,'mechanical');
#443=PRODUCT('2026-07-13-10-58-06-957','Conector biela',$,(#442));
#444=PRESENTATION_STYLE_ASSIGNMENT((#445));
#445=SURFACE_STYLE_USAGE(.BOTH.,#446);
#446=SURFACE_SIDE_STYLE('',(#447));
#447=SURFACE_STYLE_FILL_AREA(#448);
#448=FILL_AREA_STYLE('Acero - Satinado',(#449));
#449=FILL_AREA_STYLE_COLOUR('Acero - Satinado',#450);
#450=COLOUR_RGB('Acero - Satinado',0.627450980392157,0.627450980392157,
0.627450980392157);
ENDSEC;
END-ISO-10303-21;
